<?xml version="1.0"?>
<svg xmlns="http://www.w3.org/2000/svg" id="Capa_1" enable-background="new 0 0 524.193 524.193" height="512px" viewBox="0 0 524.193 524.193" width="512px" class=""><g><path d="m517.647 31.279h-511.101c-3.427-.184-6.355 2.446-6.538 5.874-.004.069-.007.139-.008.208v101.839c.04 3.576 2.97 6.444 6.546 6.409h12.869v341.222c.069 3.432 2.907 6.159 6.339 6.09.069-.001.138-.004.208-.008h472.27c3.428.184 6.356-2.447 6.539-5.875.004-.069.006-.138.008-.208v-341.221h12.869c3.576.035 6.506-2.833 6.546-6.409v-101.839c-.068-3.432-2.906-6.158-6.337-6.09-.071.002-.141.004-.21.008zm-396.953 388.435-26.591-32.071 36.921-36.877 32.132 26.577c2.197 1.817 5.325 1.982 7.701.406 17.101-11.333 36.174-19.362 56.231-23.672 2.777-.689 4.812-3.062 5.069-5.911l4.019-41.849h52.412l4.019 41.849c.264 2.827 2.31 5.167 5.076 5.808 20.044 4.466 39.116 12.518 56.297 23.768 2.366 1.534 5.452 1.359 7.63-.431l32.102-26.539 36.403 36.83-26.615 32.107c-1.82 2.122-1.989 5.2-.414 7.509 10.639 16.128 18.411 33.975 22.971 52.75h-38.937c-16.772-53.929-67.406-92.159-125.02-92.159-57.587 0-108.245 38.229-125.017 92.159h-38.93c4.65-18.754 12.416-36.594 22.974-52.776 1.554-2.304 1.378-5.366-.433-7.478zm252.792 60.257h-222.776c16.255-46.379 60.852-79.216 111.387-79.216 50.56 0 95.139 32.837 111.389 79.216zm118.349 0h-10.427c-.043 0-.084.18-.128.176l-42.904-4.033c-4.477-18.339-11.869-35.839-21.895-51.834l27.338-32.946c2.123-2.556 1.958-6.307-.38-8.668l-44.687-45.193c-2.358-2.382-6.145-2.569-8.727-.431l-33.062 27.346c-16.074-9.933-33.588-17.319-51.921-21.895l-4.136-43.056c-.299-3.361-3.067-5.966-6.44-6.062h-64.165c-3.372.095-6.14 2.698-6.442 6.057l-4.135 42.953c-18.381 4.48-35.925 11.877-51.965 21.91l-33.019-27.288c-2.574-2.124-6.341-1.941-8.699.421l-45.254 45.214c-2.367 2.362-2.544 6.139-.409 8.713l27.353 32.991c-9.946 16.045-17.33 33.542-21.886 51.862l-42.928 3.939c-.044 0-.085-.176-.128-.176h-10.431v-334.362h459.478v334.362zm19.415-347.305h-498.307v-88.444h498.307z" data-original="#000000" class="active-path" data-old_color="#000000" fill="#FFFFFF"/><path d="m361.326 179.045c0-3.574-2.897-6.472-6.472-6.472h-186.595c-3.574 0-6.472 2.897-6.472 6.472v61.479c0 3.574 2.897 6.472 6.472 6.472h186.595c3.574 0 6.472-2.897 6.472-6.472zm-186.595 6.472h173.652v48.536h-173.652z" data-original="#000000" class="active-path" data-old_color="#000000" fill="#FFFFFF"/></g> </svg>
