<?xml version="1.0"?>
<svg xmlns="http://www.w3.org/2000/svg" height="512px" viewBox="-14 0 475 475.12" width="512px"><g><path d="m420.933594 88.785156h-66.253906c-.078126-1.609375-.707032-3.140625-1.78125-4.339844l-73.898438-82.128906c-1.328125-1.472656-3.214844-2.316406-5.199219-2.316406h-147.222656c-19.144531.0234375-34.660156 15.535156-34.679687 34.679688v54.101562h-66.238282c-14.132812.011719-25.5859372 11.464844-25.6015622 25.597656v267.929688c.015625 14.132812 11.4687502 25.585937 25.6015622 25.597656h127.570313l-14.722657 53.214844h-29.558593c-3.863281 0-7 3.132812-7 7 0 3.863281 3.136719 7 7 7h228.6875c3.867187 0 7-3.136719 7-7 0-3.867188-3.132813-7-7-7h-29.554688l-14.726562-53.214844h127.574219c14.132812-.015625 25.585937-11.46875 25.597656-25.601562v-267.925782c-.011719-14.128906-11.460938-25.582031-25.59375-25.59375zm11.601562 25.597656v207.835938h-77.839844v-219.433594h66.238282c6.402344.007813 11.589844 5.195313 11.597656 11.59375zm-151.738281-89.136718 45.78125 50.882812h-38.9375c-3.777344-.003906-6.835937-3.0625-6.839844-6.839844zm-154.21875-11.246094h140.21875v55.289062c.011719 11.503907 9.335937 20.828126 20.839844 20.839844h51.539062l1.519531 1.683594v230.40625h-234.796874v-287.539062c.007812-11.417969 9.261718-20.667969 20.679687-20.679688zm-100.917969 88.785156h66.238282v219.433594h-77.835938v-207.839844c.007812-6.398437 5.195312-11.585937 11.597656-11.59375zm267.898438 358.332032h-140.523438l14.722656-53.214844h111.078126zm127.375-67.214844h-395.273438c-6.40625-.003906-11.59375-5.195313-11.601562-11.597656v-46.085938h418.472656v46.089844c-.007812 6.398437-5.195312 11.589844-11.597656 11.59375zm0 0" data-original="#000000" class="active-path" data-old_color="#ffffff" fill="#ffffff"/><path d="m143.648438 294.195312h159.300781c3.867187 0 7-3.132812 7-7 0-3.867187-3.132813-7-7-7h-159.300781c-3.867188 0-7 3.132813-7 7 0 3.867188 3.132812 7 7 7zm0 0" data-original="#000000" class="active-path" data-old_color="#ffffff" fill="#ffffff"/><path d="m143.648438 260.890625h95.367187c3.867187 0 7-3.132813 7-7s-3.132813-7-7-7h-95.367187c-3.867188 0-7 3.132813-7 7s3.132812 7 7 7zm0 0" data-original="#000000" class="active-path" data-old_color="#ffffff" fill="#ffffff"/><path d="m191.613281 189.867188c-.09375 0-.1875-.011719-.28125-.011719s-.1875.007812-.28125.011719c-12.585937-.167969-22.703125-10.40625-22.71875-22.992188 0-3.867188-3.132812-7-7-7-3.867187 0-7 3.132812-7 7 .023438 17.726562 12.597657 32.953125 30 36.328125v11.519531c0 3.867188 3.132813 7 7 7 3.867188 0 7-3.132812 7-7v-11.519531c18.714844-3.621094 31.621094-20.867187 29.808594-39.84375s-17.746094-33.472656-36.808594-33.484375c-12.703125 0-23-10.296875-23-23s10.296875-23 23-23 23 10.296875 23 23c0 3.867188 3.132813 7 7 7 3.867188 0 7-3.132812 7-7-.023437-17.726562-12.597656-32.953125-30-36.328125v-10.15625c0-3.863281-3.132812-7-7-7-3.867187 0-7 3.136719-7 7v10.15625c-18.714843 3.621094-31.621093 20.867187-29.808593 39.84375s17.746093 33.472656 36.808593 33.484375c12.554688.128906 22.6875 10.300781 22.765625 22.855469.078125 12.558593-9.929687 22.855469-22.484375 23.136719zm0 0" data-original="#000000" class="active-path" data-old_color="#ffffff" fill="#ffffff"/></g> </svg>
