<?xml version="1.0"?>
<svg xmlns="http://www.w3.org/2000/svg" xmlns:xlink="http://www.w3.org/1999/xlink" version="1.1" id="Layer_1" x="0px" y="0px" viewBox="0 0 469.333 469.333" style="enable-background:new 0 0 469.333 469.333;" xml:space="preserve" width="512px" height="512px"><g><g>
	<g>
		<path d="M394.667,106.667h42.667c17.646,0,32-14.354,32-32V32c0-17.646-14.354-32-32-32h-42.667c-17.646,0-32,14.354-32,32v10.667    h-64C275.146,42.667,256,61.802,256,85.333V224h-85.333v-32c0-23.531-19.146-42.667-42.667-42.667H42.667    C19.146,149.333,0,168.469,0,192v85.333C0,300.865,19.146,320,42.667,320H128c23.521,0,42.667-19.135,42.667-42.667v-32H256V384    c0,23.531,19.146,42.667,42.667,42.667h64v10.667c0,17.646,14.354,32,32,32h42.667c17.646,0,32-14.354,32-32v-42.667    c0-17.646-14.354-32-32-32h-42.667c-17.646,0-32,14.354-32,32v10.667h-64c-11.771,0-21.333-9.573-21.333-21.333V245.333h85.333    V256c0,17.646,14.354,32,32,32h42.667c17.646,0,32-14.354,32-32v-42.667c0-17.646-14.354-32-32-32h-42.667    c-17.646,0-32,14.354-32,32V224h-85.333V85.333c0-11.76,9.563-21.333,21.333-21.333h64v10.667    C362.667,92.312,377.021,106.667,394.667,106.667z M384,32c0-5.885,4.792-10.667,10.667-10.667h42.667    C443.208,21.333,448,26.115,448,32v42.667c0,5.885-4.792,10.667-10.667,10.667h-42.667c-5.875,0-10.667-4.781-10.667-10.667V32z     M149.333,277.333c0,11.76-9.563,21.333-21.333,21.333H42.667c-11.771,0-21.333-9.573-21.333-21.333V192    c0-11.76,9.563-21.333,21.333-21.333H128c11.771,0,21.333,9.573,21.333,21.333V277.333z M384,394.667    c0-5.885,4.792-10.667,10.667-10.667h42.667c5.875,0,10.667,4.781,10.667,10.667v42.667c0,5.885-4.792,10.667-10.667,10.667    h-42.667c-5.875,0-10.667-4.781-10.667-10.667V394.667z M384,213.333c0-5.885,4.792-10.667,10.667-10.667h42.667    c5.875,0,10.667,4.781,10.667,10.667V256c0,5.885-4.792,10.667-10.667,10.667h-42.667c-5.875,0-10.667-4.781-10.667-10.667    V213.333z" data-original="#000000" class="active-path" data-old_color="#ffffff" fill="#ffffff"/>
	</g>
</g></g> </svg>
