<?xml version="1.0"?>
<svg xmlns="http://www.w3.org/2000/svg" xmlns:xlink="http://www.w3.org/1999/xlink" version="1.1" id="Capa_1" x="0px" y="0px" viewBox="0 0 53.962 53.962" style="enable-background:new 0 0 53.962 53.962;" xml:space="preserve" width="512px" height="512px"><g><g id="microphone">
	<g>
		<path d="M43.981,28c0,8.056-7.944,15-17,15c-9.056,0-17-6.943-17-15h-2c0,8.987,8.147,16.51,18,17v8.962h2v-8.954    c9.853-0.49,18-8.021,18-17.008H43.981z M26.981,37c6.562,0,12-5.383,12-12V12c0-6.617-5.438-12-12-12c-6.562,0-12,5.383-12,12v13    C14.981,31.617,20.418,37,26.981,37z M16.981,12c0-5.494,4.551-10,10-10c5.449,0,10,4.506,10,10v13c0,5.494-4.551,10-10,10    c-5.449,0-10-4.506-10-10V12z" data-original="#000000" class="active-path" data-old_color="#ffffff" fill="#ffffff"/>
	</g>
</g></g> </svg>
