<?xml version="1.0"?>
<svg xmlns="http://www.w3.org/2000/svg" xmlns:xlink="http://www.w3.org/1999/xlink" version="1.1" id="Capa_1" x="0px" y="0px" viewBox="0 0 412.438 412.438" style="enable-background:new 0 0 412.438 412.438;" xml:space="preserve" width="512px" height="512px"><g><g>
	<g>
		<path d="M406.4,69.419h-63.6H110.4H45.2c-3.6,0-6.4,2.8-6.4,6.4v30.8H6.4c-3.6,0-6.4,2.8-6.4,6.4v64.8v56.8v64.8    c0,3.6,2.8,6.4,6.4,6.4h64.8h232.4h63.6c3.6,0,6.4-2.8,6.4-6.4v-30.8H406c3.6,0,6.4-2.8,6.4-6.4v-64.8v-56.8v-64.8    C412.8,72.219,410,69.419,406.4,69.419z M116,82.219h220.8c0.8,8.4,2.8,16.8,6.4,24.4H304H109.6    C113.2,99.019,115.6,90.619,116,82.219z M354.8,119.419h6.4v7.2v44.4c-26.4-3.6-47.2-25.2-50.4-51.6H354.8z M51.6,82.219h51.6    c-0.8,8.8-4,17.2-8.4,24.4H71.2H51.6V82.219z M12.8,119.419h32.4h19.2c-2.8,27.2-24.8,48.8-51.6,51.6V119.419z M12.8,293.419    v-51.6c27.2,2.8,48.8,24.8,51.6,51.6H12.8z M361.2,262.619v30.8h-50.4c2.8-26.4,24-48,50.4-51.6V262.619z M361.2,211.419v17.2    c-33.2,3.6-60,31.2-63.2,64.4H77.6v0.4c-3.2-34.4-30.4-61.6-64.4-64.8v-44.4c34.4-3.2,61.6-30.4,64.8-64.8h20.4H298    c3.2,33.6,29.6,60.8,63.2,64.4V211.419z M400,256.219h-26v-21.2v-20c7.6-5.6,16.8-9.2,26-10.4V256.219z M400,191.819    c-9.2,1.2-18,3.6-26,8v-22v-39.6c8,4.4,16.8,6.8,26,8V191.819z M400,133.819c-9.6-1.2-18.4-4.8-26-10.4v-10.4    c0-3.6-2.8-6.4-6.4-6.4h-9.2c-4.8-7.6-7.6-15.6-8.4-24.4h50V133.819z" data-original="#000000" class="active-path" data-old_color="#ffffff" fill="#ffffff"/>
	</g>
</g><g>
	<g>
		<path d="M186.8,148.219c-32,0-58.4,26-58.4,58.4c0,32,26,58.4,58.4,58.4c32,0,58.4-26,58.4-58.4    C245.2,174.219,219.2,148.219,186.8,148.219z M186.8,251.819c-25.2,0-45.6-20.4-45.6-45.6s20.4-45.6,45.6-45.6    s45.6,20.4,45.6,45.6S212,251.819,186.8,251.819z" data-original="#000000" class="active-path" data-old_color="#ffffff" fill="#ffffff"/>
	</g>
</g><g>
	<g>
		<path d="M94,185.019c-12,0-21.6,9.6-21.6,21.6c0,12,9.6,21.6,21.6,21.6s21.6-9.6,21.6-21.6S106,185.019,94,185.019z M94,215.019    c-4.8,0-8.8-4-8.8-8.8c0-4.8,4-8.8,8.8-8.8c4.8,0,8.8,4,8.8,8.8C102.8,211.419,98.8,215.019,94,215.019z" data-original="#000000" class="active-path" data-old_color="#ffffff" fill="#ffffff"/>
	</g>
</g><g>
	<g>
		<path d="M279.6,185.019c-12,0-21.2,9.6-21.2,21.6s9.6,21.6,21.6,21.6s21.2-10,21.2-21.6    C301.2,194.619,291.6,185.019,279.6,185.019z M280,215.019c-4.8,0-8.8-4-8.8-8.8c0-4.8,4-8.8,8.8-8.8s8.8,4,8.8,8.8    C288.4,211.419,284.8,215.019,280,215.019z" data-original="#000000" class="active-path" data-old_color="#ffffff" fill="#ffffff"/>
	</g>
</g><g>
	<g>
		<path d="M367.6,330.219H6.4c-3.6,0-6.4,2.8-6.4,6.4c0,3.6,2.8,6.4,6.4,6.4h361.2c3.6,0,6.4-2.8,6.4-6.4    C374,333.019,371.2,330.219,367.6,330.219z" data-original="#000000" class="active-path" data-old_color="#ffffff" fill="#ffffff"/>
	</g>
</g></g> </svg>
