<?xml version="1.0"?>
<svg xmlns="http://www.w3.org/2000/svg" xmlns:xlink="http://www.w3.org/1999/xlink" version="1.1" id="Capa_1" x="0px" y="0px" width="512px" height="512px" viewBox="0 0 39.523 39.524" style="enable-background:new 0 0 39.523 39.524;" xml:space="preserve"><g><g>
	<path d="M39.516,28.639c0-2.971-2.104-5.508-5.057-6.506c0.443-0.554,0.791-1.199,1.029-1.842c0.408-0.248,0.719-0.682,0.852-1.205   c0.115-0.463,0.369-1.477-0.173-2.041v-0.438c0.022-0.783,0.085-2.812-1.604-3.701c-0.041-0.154-0.051-0.272-0.053-0.299   l-0.221-2.232l-1.6,1.509c-0.188,0.141-1.211,0.391-2.17,0.485l-0.398,0.062c-2.996,0.472-2.948,2.199-2.91,3.588   c0.005,0.177,0.01,0.361,0.01,0.572l0.014,0.396c-0.301,0.336-0.508,0.948-0.232,2.075c0.124,0.509,0.451,0.947,0.854,1.171   c0.182,0.463,0.541,1.213,1.084,1.891c-1.272,0.428-2.393,1.135-3.252,2.043c-0.717-0.4-1.486-0.73-2.301-0.98   c0.768-0.865,1.344-1.926,1.708-2.935c0.57-0.319,1.021-0.93,1.198-1.643c0.164-0.648,0.527-2.097-0.254-2.816v-0.737   c0.051-1.736-0.139-4.14-2.299-5.211c-0.09-0.302-0.105-0.539-0.106-0.564l-0.272-2.783l-1.998,1.885   c-0.239,0.215-1.776,0.604-3.26,0.752l-0.576,0.092c-4.151,0.652-4.09,2.949-4.033,4.979c0.008,0.259,0.015,0.527,0.015,0.828   l0.021,0.666c-0.424,0.424-0.744,1.254-0.349,2.875c0.177,0.707,0.642,1.313,1.196,1.59c0.271,0.705,0.845,1.961,1.77,3.018   c-0.82,0.25-1.598,0.584-2.318,0.988c-0.854-0.904-1.961-1.606-3.223-2.033c0.443-0.553,0.791-1.198,1.029-1.842   c0.408-0.247,0.719-0.682,0.852-1.204c0.115-0.464,0.369-1.478-0.172-2.041v-0.438c0.022-0.783,0.084-2.812-1.605-3.701   c-0.025-0.099-0.044-0.198-0.053-0.299l-0.219-2.231l-1.601,1.508C8.65,12.03,7.625,12.28,6.666,12.374L6.27,12.436   c-2.998,0.472-2.949,2.199-2.912,3.589c0.006,0.176,0.01,0.36,0.01,0.571l0.014,0.396c-0.301,0.336-0.509,0.951-0.232,2.076   c0.123,0.508,0.451,0.946,0.852,1.17c0.183,0.463,0.541,1.213,1.084,1.892C2.119,23.121,0,25.665,0,28.646v0.5h9.306   c-0.437,1.057-0.687,2.19-0.687,3.381v0.5h22.284v-0.5c0-1.188-0.25-2.324-0.687-3.381h9.308v-0.503h-0.008V28.639z M35.816,28.139   v-1.272c0-0.276-0.225-0.5-0.5-0.5s-0.5,0.224-0.5,0.5v1.272h-5.09c-0.756-1.348-1.845-2.521-3.175-3.435   c0.522-0.521,1.149-0.959,1.853-1.295c0.754,1.048,1.969,1.683,3.277,1.683s2.523-0.635,3.278-1.683   c1.957,0.938,3.336,2.688,3.53,4.729H35.816L35.816,28.139z M25.527,32.021v-2.074c0-0.276-0.224-0.5-0.5-0.5   c-0.274,0-0.5,0.224-0.5,0.5v2.074h-9.548v-2.074c0-0.276-0.224-0.5-0.5-0.5c-0.275,0-0.5,0.224-0.5,0.5v2.074H9.627   c0.064-1.017,0.335-1.981,0.759-2.882c0.08-0.168,0.16-0.336,0.251-0.5c0.096-0.17,0.196-0.336,0.303-0.5h0.02v-0.03   c0.291-0.442,0.627-0.86,0.998-1.252c0.488-0.517,1.04-0.983,1.648-1.394c0.137-0.093,0.278-0.179,0.422-0.265   c0.142-0.086,0.285-0.168,0.432-0.248c0.202-0.106,0.404-0.218,0.615-0.312c1.041,1.555,2.785,2.508,4.68,2.508   c1.894,0,3.637-0.955,4.681-2.51c0.211,0.098,0.412,0.207,0.614,0.312c0.146,0.08,0.29,0.162,0.433,0.248   c0.144,0.086,0.284,0.172,0.422,0.264c0.607,0.408,1.16,0.877,1.647,1.395c0.371,0.391,0.707,0.809,0.998,1.252v0.031h0.021   c0.104,0.164,0.207,0.33,0.303,0.5c0.091,0.164,0.171,0.332,0.251,0.5c0.424,0.896,0.694,1.863,0.759,2.881L25.527,32.021   L25.527,32.021z M4.192,26.366c-0.275,0-0.5,0.223-0.5,0.5v1.273H1.016c0.195-2.041,1.574-3.789,3.531-4.729   c0.754,1.048,1.969,1.683,3.277,1.683c1.31,0,2.523-0.635,3.279-1.683c0.699,0.336,1.326,0.774,1.852,1.295   c-1.33,0.914-2.419,2.087-3.174,3.435h-5.09v-1.272C4.692,26.588,4.468,26.366,4.192,26.366z M5.888,22.917   c0.533,0.406,1.173,0.695,1.949,0.695c0.749,0,1.399-0.268,1.954-0.686c0.109,0.025,0.217,0.062,0.324,0.098   c-0.571,0.662-1.396,1.068-2.291,1.068c-0.897,0-1.731-0.398-2.305-1.064C5.643,22.989,5.763,22.95,5.888,22.917z M4.774,19.456   l-0.24-0.074c-0.149-0.045-0.348-0.266-0.42-0.557c-0.183-0.746-0.09-1.115,0.045-1.203l0.234-0.154l-0.029-0.891   c0-0.205-0.004-0.398-0.01-0.584c-0.037-1.348-0.062-2.238,2.066-2.572l0.37-0.059c0.021-0.002,2.165-0.223,2.72-0.742l0.126-0.119   l0.021,0.207c0.023,0.248,0.082,0.502,0.17,0.732l0.074,0.197l0.194,0.086c0.9,0.389,1.265,1.242,1.216,2.869v0.985l0.256,0.146   c0.033,0.018,0.187,0.16-0.055,1.123c-0.074,0.293-0.262,0.539-0.477,0.629l-0.211,0.086l-0.072,0.217   c-0.244,0.721-0.672,1.498-1.243,2.061C9.344,22,9.167,22.143,8.979,22.26c-0.345,0.213-0.724,0.354-1.142,0.354   c-0.438,0-0.827-0.139-1.167-0.354c-0.189-0.119-0.361-0.264-0.521-0.424c-0.717-0.713-1.138-1.723-1.289-2.146L4.774,19.456z    M15.151,19.374l-0.24-0.072c-0.272-0.082-0.633-0.451-0.762-0.971c-0.252-1.031-0.192-1.756,0.16-1.988l0.231-0.154l-0.035-1.172   c0-0.297-0.007-0.578-0.015-0.844c-0.055-2.002-0.096-3.445,3.188-3.963l0.551-0.086c0.029-0.004,3.08-0.324,3.814-1.016   l0.52-0.488l0.071,0.74c0.006,0.084,0.043,0.521,0.233,1.023l0.074,0.196l0.193,0.084c1.766,0.765,1.951,2.634,1.898,4.373v1.299   l0.257,0.146c0.293,0.164,0.303,0.797,0.026,1.885c-0.123,0.49-0.445,0.908-0.822,1.062l-0.209,0.088l-0.073,0.215   c-0.376,1.113-1.047,2.316-1.952,3.166c-0.159,0.146-0.322,0.285-0.499,0.41c-0.229,0.164-0.472,0.299-0.726,0.406   c-0.396,0.17-0.814,0.283-1.27,0.283c-0.479,0-0.916-0.105-1.316-0.281c-0.252-0.109-0.486-0.248-0.707-0.408   c-0.176-0.127-0.344-0.262-0.5-0.41c-1.129-1.076-1.777-2.641-2.012-3.287L15.151,19.374z M19.772,24.999   c1.06,0,1.985-0.4,2.771-1.018c0.322,0.08,0.637,0.174,0.945,0.281c-0.869,1.176-2.25,1.885-3.734,1.885   c-1.486,0-2.867-0.709-3.734-1.885c0.312-0.109,0.633-0.203,0.961-0.285C17.737,24.579,18.658,24.999,19.772,24.999z    M29.744,22.917c0.533,0.406,1.174,0.695,1.949,0.695c0.75,0,1.398-0.268,1.955-0.686c0.108,0.025,0.217,0.062,0.322,0.098   c-0.57,0.662-1.396,1.068-2.29,1.068c-0.897,0-1.731-0.398-2.305-1.064C29.5,22.989,29.619,22.95,29.744,22.917z M28.63,19.456   l-0.239-0.074c-0.15-0.045-0.349-0.266-0.42-0.557c-0.182-0.746-0.089-1.115,0.045-1.203l0.233-0.154l-0.028-0.891   c0-0.205-0.005-0.398-0.01-0.584c-0.037-1.348-0.062-2.238,2.066-2.572l0.369-0.059c0.021-0.002,2.166-0.223,2.721-0.742   l0.127-0.119l0.02,0.195c0.008,0.111,0.042,0.406,0.17,0.744l0.073,0.197l0.194,0.086c0.899,0.389,1.265,1.242,1.216,2.869v0.985   l0.256,0.146c0.033,0.018,0.187,0.16-0.054,1.123c-0.074,0.293-0.262,0.539-0.478,0.629l-0.211,0.086l-0.071,0.217   c-0.244,0.721-0.672,1.498-1.244,2.061c-0.164,0.162-0.342,0.305-0.529,0.422c-0.346,0.213-0.725,0.354-1.143,0.354   c-0.438,0-0.826-0.139-1.166-0.354c-0.189-0.119-0.362-0.264-0.522-0.424c-0.716-0.713-1.138-1.723-1.289-2.146L28.63,19.456z" data-original="#000000" class="active-path" data-old_color="#ffffff" fill="#ffffff"/>
</g></g> </svg>
