<?xml version="1.0"?>
<svg xmlns="http://www.w3.org/2000/svg" xmlns:xlink="http://www.w3.org/1999/xlink" version="1.1" id="Layer_1" x="0px" y="0px" viewBox="0 0 512 512" style="enable-background:new 0 0 512 512;" xml:space="preserve" width="512px" height="512px" class=""><g><g>
	<g>
		<path d="M280.255,87.989c-24.718-24.718-57.581-38.331-92.538-38.331s-67.82,13.613-92.538,38.331    c-24.718,24.718-38.331,57.581-38.331,92.538c0,34.957,13.613,67.82,38.331,92.538c24.718,24.718,57.581,38.331,92.538,38.331    s67.82-13.613,92.538-38.331c24.717-24.718,38.331-57.581,38.331-92.538C318.586,145.57,304.972,112.707,280.255,87.989z     M269.811,262.623c-21.928,21.928-51.083,34.005-82.094,34.005s-60.166-12.076-82.094-34.005    c-21.928-21.928-34.006-51.084-34.006-82.095c0-31.012,12.077-60.167,34.006-82.095c21.927-21.928,51.083-34.005,82.094-34.005    s60.167,12.076,82.094,34.005c21.928,21.928,34.006,51.084,34.006,82.095C303.816,211.54,291.739,240.694,269.811,262.623z" data-original="#000000" class="active-path" data-old_color="#ffffff" fill="#ffffff"/>
	</g>
</g><g>
	<g>
		<path d="M121.733,104.514l9.689,11.147c23.142-20.116,55.589-26.319,84.683-16.184l4.858-13.947    C186.887,73.658,148.862,80.933,121.733,104.514z" data-original="#000000" class="active-path" data-old_color="#ffffff" fill="#ffffff"/>
	</g>
</g><g>
	<g>
		<path d="M240.09,94.56l-7.685,12.614c3.952,2.407,7.743,5.165,11.269,8.198l9.631-11.197    C249.173,100.62,244.726,97.384,240.09,94.56z" data-original="#000000" class="active-path" data-old_color="#ffffff" fill="#ffffff"/>
	</g>
</g><g>
	<g>
		<path d="M205.57,264.51c-16.79,3.54-34.048,2.05-49.912-4.305l-5.492,13.71c12.008,4.811,24.695,7.242,37.474,7.242    c6.997,0,14.022-0.73,20.976-2.195L205.57,264.51z" data-original="#000000" class="active-path" data-old_color="#ffffff" fill="#ffffff"/>
	</g>
</g><g>
	<g>
		<path d="M466.367,391.964V0H78.487v36.77c-1.965,1.5-3.906,3.039-5.817,4.624H51.263v20.928    C22.753,95.135,7.188,136.633,7.188,180.528c0,43.894,15.564,85.393,44.074,118.204V512h372.21v-24.112l11.884,11.843    l69.455-69.456L466.367,391.964z M451.597,14.769v362.477l-28.124-28.026V41.395H302.762    c-13.233-10.982-27.804-19.909-43.315-26.626H451.597z M336.751,282.472c20.47-29.792,31.494-65.018,31.494-101.945    c0-46.688-17.603-90.667-49.668-124.364h90.128v278.339l-34.194-34.074l-10.83,10.83L336.751,282.472z M353.231,321.706    l-26.533,26.532l-25.528-27.286c4.9-3.965,9.643-8.22,14.198-12.773c4.386-4.386,8.515-8.962,12.387-13.703L353.231,321.706z     M93.256,14.769h22.729c-7.835,3.392-15.427,7.35-22.729,11.851V14.769z M70.508,63.319    c31.307-31.308,72.932-48.549,117.209-48.549c44.275,0,85.901,17.242,117.209,48.549c64.63,64.629,64.63,169.788,0,234.418    c-64.628,64.63-169.789,64.629-234.417,0C5.878,233.107,5.878,127.948,70.508,63.319z M408.704,497.231L408.704,497.231H66.032    v-183.36c34.365,31.393,78.022,47.099,121.685,47.099c35.508,0,71.011-10.394,101.518-31.157l27.015,28.876l-11.195,11.195    l103.65,103.287V497.231z M435.338,478.863L325.959,369.866l48.568-48.568l109.379,108.997L435.338,478.863z" data-original="#000000" class="active-path" data-old_color="#ffffff" fill="#ffffff"/>
	</g>
</g><g>
	<g>
		<polygon points="374.52,343.149 353.231,364.437 363.676,374.88 374.52,364.036 415.727,405.244 426.172,394.8   " data-original="#000000" class="active-path" data-old_color="#ffffff" fill="#ffffff"/>
	</g>
</g><g>
	<g>
		
			<rect x="431.929" y="410.533" transform="matrix(0.7072 -0.7071 0.7071 0.7072 -167.1453 433.132)" width="14.77" height="15.63" data-original="#000000" class="active-path" data-old_color="#ffffff" fill="#ffffff"/>
	</g>
</g><g>
	<g>
		<path d="M213.383,165.671c7.888-6.815,12.893-16.879,12.893-28.095c0-20.479-16.661-37.14-37.14-37.14s-37.14,16.661-37.14,37.14    c0,11.217,5.005,21.28,12.891,28.095c-17.85,8.93-30.142,27.385-30.142,48.666v39.149h108.78v-39.149    C243.525,193.056,231.234,174.603,213.383,165.671z M189.136,115.206c12.334,0,22.37,10.035,22.37,22.37    s-10.035,22.37-22.37,22.37c-12.334,0-22.37-10.035-22.37-22.37S176.802,115.206,189.136,115.206z M228.757,238.717h-79.242    v-24.38c0-21.847,17.774-39.621,39.621-39.621s39.621,17.773,39.621,39.621V238.717z" data-original="#000000" class="active-path" data-old_color="#ffffff" fill="#ffffff"/>
	</g>
</g><g>
	<g>
		<polygon points="112.774,392.179 112.774,406.948 278.218,406.948 278.218,399.564 278.218,392.179   " data-original="#000000" class="active-path" data-old_color="#ffffff" fill="#ffffff"/>
	</g>
</g><g>
	<g>
		<polygon points="112.774,440.04 112.774,454.81 278.218,454.81 278.218,447.425 278.218,440.04   " data-original="#000000" class="active-path" data-old_color="#ffffff" fill="#ffffff"/>
	</g>
</g></g> </svg>
