<?xml version="1.0"?>
<svg xmlns="http://www.w3.org/2000/svg" xmlns:xlink="http://www.w3.org/1999/xlink" version="1.1" id="Capa_1" x="0px" y="0px" viewBox="0 0 512 512" style="enable-background:new 0 0 512 512;" xml:space="preserve" width="512px" height="512px"><g><g>
	<g>
		<path d="M443.61,285.822c1.298-6.751,1.904-13.612,1.734-20.49c-1.277-51.403,18.516-96.517,30.429-118.834    c3.187-5.971,3.616-13.016,1.177-19.329c-2.441-6.317-7.5-11.249-13.881-13.528c-5.944-2.124-11.828-3.767-17.611-5.022    c-1.457-15.732-6.787-35.7-23.036-48.472c-14.119-11.098-33.685-14.471-58.153-10.028c-4.978,0.904-10.223-0.962-13.688-4.871    c-19.097-21.538-37.49-26.669-49.558-27.181c-15.135-0.638-29.936,5.333-44.019,17.768c-12.08-10.667-24.644-16.578-37.586-17.641    c-25.934-2.127-46.192,16.037-55.961,27.054c-3.465,3.908-8.708,5.776-13.688,4.871c-16.865-3.062-31.517-2.397-43.553,1.973    c-3.894,1.414-5.903,5.716-4.489,9.609c1.413,3.893,5.717,5.902,9.609,4.489c9.506-3.452,21.536-3.894,35.752-1.313    c10.099,1.834,20.672-1.874,27.592-9.678c7.911-8.921,24.073-23.66,43.51-22.056c16.558,1.359,33.054,14.008,49.097,37.606    c-3.775,2.244-7.541,4.819-11.293,7.725c-13.374-10.361-26.933-16.534-40.577-18.429c-21.436-2.977-38.406,5.124-49.492,13.217    c-5.561-2.061-11.246-3.833-17.052-5.308c-7.815-1.985-15.807,0.336-21.376,6.208c-5.597,5.902-7.5,14.05-5.089,21.797    c1.23,3.952,2.592,7.901,4.072,11.819c-12.277-2.158-26.783-3.319-42.488-1.86c1.048-7.485,3.245-15.985,7.686-23.387    c2.131-3.552,0.979-8.159-2.572-10.29c-3.553-2.131-8.158-0.979-10.29,2.572c-6.568,10.946-9.213,23.371-10.19,33.353    c-6.454,1.302-13.044,3.093-19.705,5.474c-6.381,2.28-11.44,7.211-13.881,13.528c-2.438,6.313-2.009,13.357,1.178,19.329    c11.912,22.316,31.705,67.431,30.428,118.834c-0.623,25.066,9.098,50.083,25.983,70.091L58.252,339    c-4.86,0.506-8.39,4.856-7.884,9.716c0.474,4.549,2.675,8.33,9.716,7.884l41.458-4.314    c-11.792,11.031-22.792,23.218-32.279,35.717c-31.721-9.41-52.925-23.297-54.207-35.612c-1.175-11.292,13.95-27.581,39.474-42.509    c3.575-2.091,4.779-6.685,2.688-10.261c-2.091-3.576-6.686-4.777-10.261-2.688C3.688,322.239-0.952,343.515,0.134,353.944    c2.58,24.796,38.661,40.039,59.975,46.928c-2.666,4.018-5.172,8.037-7.455,12.029c-20.292,35.487-16.983,54.48-10.634,64.162    c4.596,7.01,16.245,16.915,45.351,16.915c8.422,0,18.309-0.83,29.905-2.799c34.604-5.877,71.973-20.342,99.961-38.694    c31.156-20.429,55.576-47.173,67.616-73.506l6.58,29.152c2.241,8.745,9.923,6.831,10.578,6.683    c4.767-1.076,7.759-5.812,6.683-10.578l-5.918-26.219l31.892,20.911l9.948,44.076c2.244,8.658,9.923,6.831,10.578,6.683    c4.767-1.076,7.759-5.812,6.683-10.578l-5.918-26.219l59.525,39.031c6.023,3.342,10.552,0.043,12.25-2.547    c2.679-4.086,1.539-9.571-2.547-12.25l-59.525-39.031l26.405-5.026c4.8-0.914,7.951-5.545,7.037-10.346    c-0.914-4.8-5.544-7.954-10.346-7.037l-44.389,8.448l-10.49-6.879c18.201-0.633,35.921-5.463,52.341-14.566    c2.747-1.523,5.408-3.156,7.999-4.869c47.995,42.15,73.823,94.83,63.205,111.023c-6.372,9.716-30,12.68-60.201,7.552    c-32.668-5.548-67.901-19.174-94.247-36.45c-7.137-4.679-13.983-9.766-20.35-15.117c-3.17-2.665-7.902-2.255-10.567,0.916    c-2.665,3.17-2.255,7.902,0.916,10.567c6.819,5.732,14.146,11.175,21.776,16.179c27.988,18.352,65.357,32.816,99.961,38.693    c11.6,1.97,21.482,2.799,29.905,2.799c29.099,0,40.754-9.905,45.351-16.915c6.245-9.524,9.592-28.172-9.931-62.922    c-2.467-4.391-5.196-8.826-8.143-13.264c14.556-4.671,27.171-10.352,36.886-16.644c14.175-9.181,21.938-19.371,23.074-30.287    C514.546,328.09,479.206,302.243,443.61,285.822z M300.387,33.053c7.502,0.318,22.542,3.619,38.97,22.146    c6.919,7.805,17.495,11.512,27.592,9.678c20.06-3.644,35.606-1.267,46.203,7.063c10.92,8.583,15.304,22.29,16.925,34.198    c-15.758-1.684-30.339-0.698-42.664,1.321c1.434-3.814,2.76-7.655,3.956-11.499c2.411-7.747,0.508-15.895-5.089-21.797    c-5.569-5.873-13.562-8.194-21.376-6.208c-6.217,1.579-12.294,3.508-18.23,5.76c-8.105-6.027-19.921-12.458-34.704-13.964    c-10.342-1.053-20.723,0.425-31.069,4.368c-4.362-6.557-8.805-12.419-13.325-17.586C278.446,37.133,289.462,32.588,300.387,33.053    z M324.691,136.847l2.839,20.551c1.202,8.701-2.06,17.215-8.726,22.776c-10.874,9.072-22.996,16.877-36.098,23.299    c-3.74-10.819-9.287-24.52-17.205-39.166c25.434-43.37,60.11-70.9,103.094-81.816c3.575-0.906,5.946,1.09,6.8,1.992    c0.868,0.916,2.767,3.432,1.65,7.019c-2.31,7.424-5.117,14.841-8.344,22.044c-4.019,8.973-13.044,14.771-22.992,14.772    l-13.59,0.001c-2.168,0-4.23,0.938-5.654,2.573C325.041,132.528,324.394,134.699,324.691,136.847z M163.772,143.066    c1.418,0.152,9.277,0.255,9.277,0.255l-1.662,12.025c-1.915,13.861,3.31,27.449,13.976,36.349    c25.017,20.87,55.414,35.258,90.384,42.841c2.781,13.185,10.208,52.852,8.276,92.34c-8.724,1.058-18.124,1.593-28.029,1.593    c-28.04,0-51.345-4.238-69.264-12.597c-14.89-6.945-26.116-16.774-33.367-29.212c-16.725-28.69-8.926-64.161-0.083-79.778    C165.046,186.101,164.962,158.331,163.772,143.066z M310.448,74.673c7.626,0.777,14.298,3.29,19.815,6.296    c-15.382,7.813-29.618,18.026-42.508,30.489c-6.666-8.731-13.402-16.377-20.195-22.927    C282.1,77.911,296.498,73.254,310.448,74.673z M213.354,74.903c21.012,2.919,42.499,18.908,63.903,47.534    c-7.314,8.27-14.117,17.341-20.366,27.179c-19.711-31.03-44.931-54.435-74.289-69.12C190.75,76.233,201.176,73.212,213.354,74.903    z M138.382,84.485c2.351-2.812,6.165-2.153,6.8-1.992c43.384,11.018,78.311,38.951,103.812,83.022    c12.111,20.93,19.114,40.755,22.663,52.683c-29.53-7.406-55.282-20.167-76.684-38.022c-6.666-5.561-9.928-14.076-8.726-22.777    l2.839-20.551c0.296-2.148-0.351-4.319-1.775-5.953c-1.424-1.635-3.486-2.573-5.654-2.573l-13.59-0.001    c-9.948-0.001-18.973-5.799-22.992-14.771c-3.226-7.201-6.034-14.618-8.344-22.044C135.615,87.916,137.572,85.453,138.382,84.485z     M81.642,265.705c1.361-54.84-19.585-102.651-32.192-126.27c-1.148-2.15-1.296-4.586-0.418-6.859    c0.88-2.278,2.633-3.986,4.937-4.809c30.92-11.049,60.31-7.926,80.118-3.069c3.552,5.603,8.428,10.167,14.107,13.379    c1.242,10.461,3.591,41.005-7.966,61.413c-10.486,18.518-19.71,60.609,0.177,94.724c8.819,15.129,22.272,26.99,39.985,35.252    c17.703,8.257,39.774,12.888,65.695,13.819c-36.592,21.889-75.367,25.122-108.956,8.426    C103.082,334.788,80.784,300.225,81.642,265.705z M209.013,439.94c-26.346,17.275-61.58,30.901-94.248,36.45    c-30.201,5.129-53.83,2.164-60.201-7.552c-5.558-8.476-1.404-26.604,11.112-48.492c12.365-21.625,31.163-44.154,52.09-62.546    c4.048,2.686,8.275,5.152,12.684,7.344c15.176,7.544,31.213,11.558,47.598,12.146l-10.43,6.839l-44.389-8.448    c-4.798-0.914-9.432,2.237-10.346,7.037c-0.914,4.8,2.237,9.432,7.037,10.346l26.405,5.026l-59.524,39.029    c-4.086,2.679-5.227,8.164-2.547,12.25c1.699,2.59,7.389,5.032,12.25,2.547l59.525-39.031l-5.918,26.219    c-1.076,4.767,1.916,9.502,6.683,10.578c0.656,0.148,8.335,1.804,10.578-6.683l9.948-44.076l31.892-20.911l-5.918,26.219    c-1.076,4.767,1.916,9.502,6.683,10.578c0.656,0.148,8.984,1.205,10.578-6.683l9.031-40.015    c8.88-3.464,17.702-7.894,26.389-13.274c6.087,3.779,12.251,7.075,18.459,9.905C265.433,390.918,241.192,418.84,209.013,439.94z     M378.948,349.564c-33.017,18.304-72.335,16.697-109.297-4.068c1.118-0.838,2.232-1.693,3.344-2.563    c6.707-0.428,13.148-1.106,19.249-2.049c0.013-0.002,0.025-0.001,0.038-0.003c35.378-5.475,61.025-19.537,76.227-41.797    c2.336-3.42,1.457-8.087-1.964-10.423c-3.421-2.336-8.088-1.458-10.423,1.964c-11.474,16.801-30.63,28.112-56.972,33.73    c1.809-48.235-7.302-96.16-11.93-106.388c14.982-7.133,28.819-15.948,41.194-26.271c10.666-8.898,15.891-22.486,13.975-36.347    l-1.661-12.025c0,0,6.668-0.04,7.505-0.093c-1.145,15.247-1.189,43.052,10.477,63.652c6.805,12.019,12.091,33.77,8.558,55.273    c-0.671,4.087,2.098,7.945,6.185,8.617c0.412,0.067,6.943,0.804,8.617-6.185c5.925-24.744-2.205-50.786-10.307-65.096    c-5.326-9.405-8.333-22.022-8.939-37.5c-0.375-9.581,0.307-18.033,0.852-22.909c6.661-3.312,12.347-8.426,16.306-14.873    c19.432-4.484,48.019-7.169,78.041,3.561c2.303,0.823,4.056,2.531,4.936,4.809c0.878,2.273,0.729,4.709-0.418,6.859    c-12.607,23.619-33.553,71.43-32.191,126.27c0.4,16.109-4.234,32.553-13.403,47.553    C407.727,328.338,394.587,340.894,378.948,349.564z M496.936,352.391c-1.273,12.232-22.834,26.282-54.21,35.61    c-9.474-12.476-20.467-24.681-32.254-35.714l41.437,4.312c5.736,0.49,9.243-3.336,9.716-7.884c0.506-4.86-3.024-9.21-7.884-9.716    l-34.287-3.568c8.885-10.502,15.75-22.367,20.175-34.914C474.638,317.093,498.395,338.373,496.936,352.391z" data-original="#000000" class="active-path" fill="#000000"/>
	</g>
</g></g> </svg>
