<?xml version="1.0"?>
<svg xmlns="http://www.w3.org/2000/svg" xmlns:xlink="http://www.w3.org/1999/xlink" version="1.1" id="Capa_1" x="0px" y="0px" viewBox="0 0 364.032 364.032" style="enable-background:new 0 0 364.032 364.032;" xml:space="preserve" width="512px" height="512px" class=""><g><g>
	<g>
		<path d="M310.784,0H53.248C29.696,0,10.24,18.944,10.24,43.008v278.528c0,23.552,18.944,42.496,43.008,42.496h257.536    c23.552,0,43.008-18.944,43.008-42.496V42.496C353.28,18.944,334.336,0,310.784,0z M343.552,321.024h-0.512    c0,17.92-14.336,32.256-32.768,32.256H53.248c-17.92,0-32.768-14.336-32.768-32.256V42.496c0-17.92,14.336-32.768,32.768-32.768    h257.536c17.92,0,32.768,14.336,32.768,32.768V321.024z" data-original="#000000" class="active-path" data-old_color="#ffffff" fill="#ffffff"/>
	</g>
</g><g>
	<g>
		<path d="M256.512,75.776c-25.6-25.6-72.704-25.088-74.752-25.088c-2.048,0-49.152-0.512-74.752,25.088    c-1.536,1.536-2.048,4.608-0.512,6.656l29.184,39.936c1.024,1.536,2.56,2.048,4.096,2.048h83.968c1.536,0,3.072-1.024,4.096-2.048    l29.184-39.936C258.56,80.384,258.048,77.824,256.512,75.776z M176.128,114.176c0.512-2.56,2.56-4.096,5.12-4.096    s4.608,2.048,5.12,4.096H176.128z M221.184,114.176h-25.088c0-3.072-1.024-6.144-3.072-8.192l12.8-24.064    c1.536-2.56,0.512-5.632-2.048-7.168s-5.632-0.512-7.168,2.048L184.32,99.84c-1.024-0.512-2.56-0.512-3.584-0.512    c-8.192,0-14.848,6.656-15.36,14.336h-23.04l-25.088-33.792c23.552-18.944,64.512-18.944,65.024-18.944c0.512,0,40.96,0,64,19.456    L221.184,114.176z" data-original="#000000" class="active-path" data-old_color="#ffffff" fill="#ffffff"/>
	</g>
</g><g>
	<g>
		<path d="M153.6,164.864H67.072c-3.072,0-5.12,2.048-5.12,5.12c0,3.072,2.048,5.12,5.12,5.12h86.016c3.072,0,5.12-2.048,5.12-5.12    C158.72,166.912,156.16,164.864,153.6,164.864z" data-original="#000000" class="active-path" data-old_color="#ffffff" fill="#ffffff"/>
	</g>
</g><g>
	<g>
		<path d="M296.448,164.864H209.92c-3.072,0-5.12,2.048-5.12,5.12c0,3.072,2.048,5.12,5.12,5.12h86.016    c3.072,0,5.12-2.048,5.12-5.12C301.568,166.912,299.008,164.864,296.448,164.864z" data-original="#000000" class="active-path" data-old_color="#ffffff" fill="#ffffff"/>
	</g>
</g><g>
	<g>
		<path d="M153.6,190.464H67.072c-3.072,0-5.12,2.048-5.12,5.12c0,3.072,2.048,5.12,5.12,5.12h86.016c3.072,0,5.12-2.048,5.12-5.12    C158.72,192.512,156.16,190.464,153.6,190.464z" data-original="#000000" class="active-path" data-old_color="#ffffff" fill="#ffffff"/>
	</g>
</g><g>
	<g>
		<path d="M296.448,190.464H209.92c-3.072,0-5.12,2.048-5.12,5.12c0,3.072,2.048,5.12,5.12,5.12h86.016    c3.072,0,5.12-2.048,5.12-5.12C301.568,192.512,299.008,190.464,296.448,190.464z" data-original="#000000" class="active-path" data-old_color="#ffffff" fill="#ffffff"/>
	</g>
</g><g>
	<g>
		<path d="M153.6,216.064H67.072c-3.072,0-5.12,2.048-5.12,5.12c0,3.072,2.048,5.12,5.12,5.12h86.016c3.072,0,5.12-2.048,5.12-5.12    C158.72,218.112,156.16,216.064,153.6,216.064z" data-original="#000000" class="active-path" data-old_color="#ffffff" fill="#ffffff"/>
	</g>
</g><g>
	<g>
		<path d="M296.448,216.064H209.92c-3.072,0-5.12,2.048-5.12,5.12c0,3.072,2.048,5.12,5.12,5.12h86.016    c3.072,0,5.12-2.048,5.12-5.12C301.568,218.112,299.008,216.064,296.448,216.064z" data-original="#000000" class="active-path" data-old_color="#ffffff" fill="#ffffff"/>
	</g>
</g><g>
	<g>
		<path d="M153.6,241.664H67.072c-3.072,0-5.12,2.048-5.12,5.12c0,3.072,2.048,5.12,5.12,5.12h86.016c3.072,0,5.12-2.048,5.12-5.12    C158.72,243.712,156.16,241.664,153.6,241.664z" data-original="#000000" class="active-path" data-old_color="#ffffff" fill="#ffffff"/>
	</g>
</g><g>
	<g>
		<path d="M296.448,241.664H209.92c-3.072,0-5.12,2.048-5.12,5.12c0,3.072,2.048,5.12,5.12,5.12h86.016    c3.072,0,5.12-2.048,5.12-5.12C301.568,243.712,299.008,241.664,296.448,241.664z" data-original="#000000" class="active-path" data-old_color="#ffffff" fill="#ffffff"/>
	</g>
</g><g>
	<g>
		<path d="M153.6,267.264H67.072c-3.072,0-5.12,2.048-5.12,5.12c0,3.072,2.048,5.12,5.12,5.12h86.016c3.072,0,5.12-2.048,5.12-5.12    C158.72,269.312,156.16,267.264,153.6,267.264z" data-original="#000000" class="active-path" data-old_color="#ffffff" fill="#ffffff"/>
	</g>
</g><g>
	<g>
		<path d="M296.448,267.264H209.92c-3.072,0-5.12,2.048-5.12,5.12c0,3.072,2.048,5.12,5.12,5.12h86.016    c3.072,0,5.12-2.048,5.12-5.12C301.568,269.312,299.008,267.264,296.448,267.264z" data-original="#000000" class="active-path" data-old_color="#ffffff" fill="#ffffff"/>
	</g>
</g><g>
	<g>
		<path d="M153.6,292.864H67.072c-3.072,0-5.12,2.048-5.12,5.12c0,3.072,2.048,5.12,5.12,5.12h86.016c3.072,0,5.12-2.048,5.12-5.12    C158.72,294.912,156.16,292.864,153.6,292.864z" data-original="#000000" class="active-path" data-old_color="#ffffff" fill="#ffffff"/>
	</g>
</g><g>
	<g>
		<path d="M296.448,292.864H209.92c-3.072,0-5.12,2.048-5.12,5.12c0,3.072,2.048,5.12,5.12,5.12h86.016    c3.072,0,5.12-2.048,5.12-5.12C301.568,294.912,299.008,292.864,296.448,292.864z" data-original="#000000" class="active-path" data-old_color="#ffffff" fill="#ffffff"/>
	</g>
</g></g> </svg>
