<?xml version="1.0"?>
<svg xmlns="http://www.w3.org/2000/svg" xmlns:xlink="http://www.w3.org/1999/xlink" version="1.1" id="Capa_1" x="0px" y="0px" viewBox="0 0 477.68 477.68" style="enable-background:new 0 0 477.68 477.68;" xml:space="preserve" width="512px" height="512px" class=""><g><g>
	<g>
		<g>
			<path d="M400,203.36L411.36,192l-24-24l-14.4-14.32l76.72-76.72L464,91.36L475.36,80l-80-80L384,11.36l14.4,14.32l-76.72,76.72     L307.36,88l-24-24L272,75.36l18.4,18.32L72,312c-3.137,3.111-3.158,8.177-0.046,11.314c0.015,0.016,0.031,0.031,0.046,0.046     l14.4,14.32L64,360c-3.137,3.111-3.158,8.177-0.046,11.314c0.015,0.016,0.031,0.031,0.046,0.046l14.4,14.32L0,464l11.36,11.36     l78.32-78.4l14.32,14.4c3.111,3.137,8.177,3.158,11.314,0.046c0.016-0.015,0.031-0.031,0.046-0.046l22.32-22.4l14.32,14.4     c3.111,3.137,8.177,3.158,11.314,0.046c0.016-0.015,0.031-0.031,0.046-0.046l218.32-218.4L400,203.36z M409.68,36.96l28.72,28.72     l-76.72,76.72l-28.72-28.72L409.68,36.96z M109.68,394.4l-28.72-28.72l16.72-16.72l28.72,28.72L109.68,394.4z M157.68,386.4     l-68.72-68.72l20.72-20.72l26.32,26.4L147.36,312l-26.4-26.32l20.72-20.72l18.32,18.4L171.36,272l-18.4-18.32l20.72-20.72     l26.32,26.4L211.36,248l-26.4-26.32l20.72-20.72l18.32,18.4L235.36,208l-18.4-18.32l20.72-20.72l26.32,26.4L275.36,184     l-26.4-26.32l20.72-20.72l18.32,18.4L299.36,144l-18.4-18.32l20.72-20.72l68.72,68.72L157.68,386.4z" data-original="#000000" class="active-path" data-old_color="#ffffff" fill="#ffffff"/>
			<path d="M453.68,295.76v-10.08h8c4.418,0,8-3.582,8-8v-32c0-4.418-3.582-8-8-8h-80c-4.418,0-8,3.582-8,8v32c0,4.418,3.582,8,8,8     h8v10.08c-15.026,10.463-23.988,27.61-24,45.92v128c0,4.418,3.582,8,8,8h96c4.418,0,8-3.582,8-8v-128     C477.668,323.37,468.706,306.223,453.68,295.76z M389.68,253.68h64v16h-64V253.68z M381.68,413.68h32v-16h-32v-16h32v-16h-32v-16     h48v80h-48V413.68z M461.68,461.68h-80v-16h56c4.418,0,8-3.582,8-8v-96c0-4.418-3.582-8-8-8h-55.12     c2.273-11.204,9.232-20.901,19.12-26.64c2.46-1.42,3.983-4.039,4-6.88v-14.48h32v14.48c0.017,2.841,1.54,5.46,4,6.88     c12.376,7.145,20,20.35,20,34.64V461.68z" data-original="#000000" class="active-path" data-old_color="#ffffff" fill="#ffffff"/>
		</g>
	</g>
</g></g> </svg>
