<?xml version="1.0"?>
<svg xmlns="http://www.w3.org/2000/svg" height="512px" viewBox="-29 0 455 455.732" width="512px" class=""><g><path d="m308.386719 2.125c-1.316407-1.359375-3.128907-2.125-5.019531-2.125h-176c-20.425782.0234375-36.976563 16.574219-37 37v33.265625h-53c-20.425782.023437-36.976563 16.578125-37 37v311.464844c.023437 20.425781 16.574218 36.976562 37 37h233.039062c20.425781-.023438 36.976562-16.574219 37-37v-33.261719h53c20.425781-.023438 36.976562-16.578125 37-37v-251.800781c0-1.820313-.710938-3.570313-1.976562-4.875zm1.980469 22.140625 63.5 65.414063-54.191407-.007813c-5.136719-.007813-9.296875-4.167969-9.300781-9.300781zm-16.960938 394.472656c-.011719 12.695313-10.300781 22.984375-23 23h-233.039062c-12.695313-.015625-22.984376-10.304687-23-23v-311.472656c.015624-12.695313 10.304687-22.984375 23-23h53v264.203125c.023437 20.421875 16.578124 36.976562 37 37h166.039062zm67-47.269531h-233.039062c-12.695313-.015625-22.984376-10.304688-23-23v-311.46875c.015624-12.695312 10.304687-22.984375 23-23h169v66.367188c.015624 12.863281 10.441406 23.285156 23.300781 23.300781l63.738281.011719v244.789062c-.015625 12.695312-10.304688 22.984375-23 23zm0 0" data-original="#000000" class="active-path" data-old_color="#ffffff" fill="#ffffff"/><path d="m335.1875 311.171875h-187.621094c-3.863281 0-7 3.136719-7 7 0 3.867187 3.136719 7 7 7h187.621094c3.867188 0 7-3.132813 7-7 0-3.863281-3.132812-7-7-7zm0 0" data-original="#000000" class="active-path" data-old_color="#ffffff" fill="#ffffff"/><path d="m147.566406 281.238281h112.320313c3.867187 0 7-3.136719 7-7 0-3.867187-3.132813-7-7-7h-112.320313c-3.863281 0-7 3.132813-7 7 0 3.863281 3.136719 7 7 7zm0 0" data-original="#000000" class="active-path" data-old_color="#ffffff" fill="#ffffff"/><path d="m204.019531 206.476562c-.097656 0-.191406-.015624-.289062-.015624-.097657 0-.195313.011718-.289063.015624-12.582031-.171874-22.695312-10.410156-22.710937-22.992187 0-3.867187-3.132813-7-7-7-3.867188 0-7 3.132813-7 7 .023437 17.726563 12.597656 32.953125 30 36.328125v11.519531c0 3.867188 3.132812 7 7 7 3.867187 0 7-3.132812 7-7v-11.519531c18.714843-3.621094 31.617187-20.867188 29.808593-39.84375-1.8125-18.976562-17.746093-33.472656-36.808593-33.484375-12.703125 0-23-10.296875-23-23s10.296875-23 23-23 23 10.296875 23 23c0 3.867187 3.132812 7 7 7 3.867187 0 7-3.132813 7-7-.023438-17.726563-12.597657-32.953125-30-36.328125v-10.15625c0-3.867188-3.132813-7-7-7-3.867188 0-7 3.132812-7 7v10.15625c-18.714844 3.621094-31.621094 20.867188-29.808594 39.84375s17.746094 33.472656 36.808594 33.484375c12.554687.125 22.691406 10.296875 22.769531 22.851563.078125 12.558593-9.925781 22.859374-22.480469 23.140624zm0 0" data-original="#000000" class="active-path" data-old_color="#ffffff" fill="#ffffff"/></g> </svg>
