<?xml version="1.0"?>
<svg xmlns="http://www.w3.org/2000/svg" height="512px" viewBox="-8 0 480 480" width="512px"><g><path d="m96 176c-4.417969 0-8-3.582031-8-8h-16c0 13.253906 10.746094 24 24 24h24v16h16v-16h24c13.253906 0 24-10.746094 24-24v-24c0-13.253906-10.746094-24-24-24h-24v-40h24c4.417969 0 8 3.582031 8 8h16c0-13.253906-10.746094-24-24-24h-24v-16h-16v16h-24c-13.253906 0-24 10.746094-24 24v24c0 13.253906 10.746094 24 24 24h24v40zm0-56c-4.417969 0-8-3.582031-8-8v-24c0-4.417969 3.582031-8 8-8h24v40zm40 16h24c4.417969 0 8 3.582031 8 8v24c0 4.417969-3.582031 8-8 8h-24zm0 0" data-original="#000000" class="active-path" data-old_color="#fFffff" fill="#fFffff"/><path d="m436.800781 200.433594 4-6.984375c6.554688-11.449219 2.621094-26.046875-8.800781-32.648438-5.503906-3.21875-12.0625-4.105469-18.222656-2.464843-6.160156 1.640624-11.40625 5.675781-14.578125 11.207031l-31.199219 54.058593v-106.914062l-116.6875-116.6875h-227.3125c-13.253906 0-24 10.746094-24 24v424c0 17.671875 14.328125 32 32 32h304c17.671875 0 32-14.328125 32-32v-128.472656l60.800781-105.238282 13.863281 8-28 48.503907 13.855469 8 36-62.402344zm-18.847656-26.664063c2.046875-.558593 4.234375-.269531 6.070313.796875 2.464843 1.4375 3.988281 4.070313 4 6.921875-.011719 1.40625-.386719 2.78125-1.085938 4l-4 6.917969-13.832031-8 4-6.941406c1.042969-1.832032 2.785156-3.164063 4.824219-3.695313zm-103.042969 205.71875-13.820312-8 7.863281-13.601562 13.808594 8zm-9.382812 13.0625-10.3125 5.105469-.734375-11.480469zm25.226562-40.550781-13.824218-8 68.148437-118.007812 13.832031 8zm-74.753906-324.6875 84.6875 84.6875h-76.6875c-4.417969 0-8-3.582031-8-8zm96 420.6875c0 8.835938-7.164062 16-16 16h-304c-8.835938 0-16-7.164062-16-16v-424c0-4.417969 3.582031-8 8-8h216v88c0 13.253906 10.746094 24 24 24h88v123.3125l-73.976562 128.144531 2.761718 43.199219 38.773438-19.199219 32.441406-56.257812zm54.910156-227.847656-13.832031-8 8-13.855469 13.832031 8zm0 0" data-original="#000000" class="active-path" data-old_color="#fFffff" fill="#fFffff"/><path d="m184 424h128v16h-128zm0 0" data-original="#000000" class="active-path" data-old_color="#fFffff" fill="#fFffff"/><path d="m48 240h184v16h-184zm0 0" data-original="#000000" class="active-path" data-old_color="#fFffff" fill="#fFffff"/><path d="m48 288h184v16h-184zm0 0" data-original="#000000" class="active-path" data-old_color="#fFffff" fill="#fFffff"/><path d="m48 336h184v16h-184zm0 0" data-original="#000000" class="active-path" data-old_color="#fFffff" fill="#fFffff"/></g> </svg>
