<?xml version="1.0"?>
<svg xmlns="http://www.w3.org/2000/svg" xmlns:xlink="http://www.w3.org/1999/xlink" version="1.1" id="Layer_1" x="0px" y="0px" viewBox="0 0 512 512" style="enable-background:new 0 0 512 512;" xml:space="preserve" width="512px" height="512px" class=""><g><rect x="85.868" y="5.366" style="fill:#AEB9CC" width="371.692" height="429.696" data-original="#AEB9CC" class=""/><rect x="56.844" y="49.654" style="fill:#C8D0E2" width="359.158" height="455.473" data-original="#C8D0E2" class=""/><path style="fill:#AEB9CC" d="M350.466,49.654H56.844V337.94c0.001,0.001,0.002,0.001,0.003,0.002v167.186h47.427v-44.331  c0-43.409,35.309-78.781,78.715-78.305c0.771,0.009,1.543,0.013,2.317,0.013c114.252,0.001,206.66-91.784,207.396-206.033  C393.008,128.8,377.228,84.827,350.466,49.654z" data-original="#AEB9CC" class=""/><path style="fill:#213847" d="M360.937,180.184c0,95.281-77.243,172.524-172.524,172.524c-36.027,0-69.484-11.047-97.162-29.942  c-45.499-31.065-75.362-83.338-75.362-142.582c0-95.281,77.243-172.524,172.524-172.524c51.909,0,98.452,22.922,130.078,59.195  C344.927,97.171,360.937,136.801,360.937,180.184z" data-original="#213847" class=""/><polygon style="fill:#AEB9CC" points="364.718,319.851 340.674,343.896 325.659,358.901 287.515,319.851 326.112,280.821   340.95,295.827 " data-original="#AEB9CC" class=""/><path style="fill:#C8D0E2" d="M364.718,319.851l-24.044,24.044l-5.213-5.337c-10.142-10.384-10.089-26.979,0.116-37.3l5.372-5.431  L364.718,319.851z" data-original="#C8D0E2" class=""/><polygon style="fill:#213847" points="492.324,426.593 453.983,464.934 431.928,487 312.573,366.237 372.27,305.88   400.558,334.325 " data-original="#213847" class=""/><path style="fill:#324A5E" d="M492.324,426.593l-38.341,38.341l-53.445-54.065c-20.962-21.218-20.953-55.345,0.02-76.544  l17.93,18.028L492.324,426.593z" data-original="#324A5E" class=""/><path style="fill:#42647A" d="M479.679,412.909l-0.193,0.193c-9.408,9.408-24.658,9.418-34.079,0.023l-26.808-26.736  c-9.404-9.378-9.453-24.596-0.111-34.035l0,0L479.679,412.909z" data-original="#42647A" class=""/><path style="fill:#324A5E" d="M360.937,180.184c0,95.281-77.243,172.524-172.524,172.524c-36.027,0-69.484-11.047-97.162-29.942  c-26.437-30.316-42.447-69.957-42.447-113.329c0-95.281,77.243-172.524,172.524-172.524c36.037,0,69.494,11.047,97.162,29.942  C344.927,97.171,360.937,136.801,360.937,180.184z" data-original="#324A5E" class=""/><circle style="fill:#42647A" cx="202.841" cy="188.337" r="129.024" data-original="#42647A" class=""/><path style="fill:#AEB9CC" d="M309.284,180.184c0,66.757-54.114,120.871-120.871,120.871c-42.644,0-80.128-22.085-101.642-55.434  c-12.17-18.865-19.23-41.324-19.23-65.438c0-66.757,54.114-120.871,120.871-120.871c29.361,0,56.281,10.466,77.223,27.884  C292.31,109.37,309.284,142.788,309.284,180.184z" data-original="#AEB9CC" class=""/><path style="fill:#C8D0E2" d="M284.886,152.664c0,66.757-54.114,120.871-120.871,120.871c-29.371,0-56.3-10.476-77.243-27.914  c-12.17-18.865-19.23-41.324-19.23-65.438c0-66.757,54.114-120.871,120.871-120.871c29.361,0,56.281,10.466,77.223,27.884  C277.816,106.062,284.886,128.541,284.886,152.664z" data-original="#C8D0E2" class=""/><path style="fill:#EAA96E" d="M218.311,137.246c0,3.879-0.758,7.582-2.137,10.959c-4.322,10.683-14.799,18.215-27.038,18.215  c-12.239,0-22.725-7.532-27.047-18.215c-1.378-3.377-2.137-7.079-2.137-10.959c0-16.118,13.066-29.184,29.184-29.184  S218.311,121.127,218.311,137.246z" data-original="#EAA96E" class=""/><path style="fill:#FBCB99" d="M216.174,148.204c-4.322,10.683-14.799,18.215-27.038,18.215c-12.239,0-22.725-7.532-27.047-18.215  c4.322-10.683,14.809-18.225,27.047-18.225C201.376,129.979,211.852,137.521,216.174,148.204z" data-original="#FBCB99" class=""/><path style="fill:#C62E1E" d="M235.355,217.669v31.518h-93.302v-31.518c0-25.767,20.884-46.651,46.651-46.651  c12.879,0,24.546,5.218,32.985,13.666C230.126,193.122,235.355,204.78,235.355,217.669z" data-original="#C62E1E" class=""/><path style="fill:#EF4C35" d="M235.355,237.401v11.786h-93.302v-11.786c0-25.767,20.884-46.651,46.651-46.651  c12.879,0,24.546,5.218,32.985,13.666C230.126,212.854,235.355,224.512,235.355,237.401z" data-original="#EF4C35" class=""/><path d="M95.178,273.065c24.718,24.718,57.581,38.331,92.538,38.331s67.82-13.613,92.538-38.331  c24.717-24.718,38.331-57.581,38.331-92.538s-13.613-67.82-38.331-92.538s-57.581-38.331-92.538-38.331s-67.82,13.613-92.538,38.331  s-38.331,57.581-38.331,92.538C56.847,215.484,70.46,248.349,95.178,273.065z M187.716,64.428c31.011,0,60.167,12.076,82.094,34.005  c21.928,21.928,34.006,51.084,34.006,82.095s-12.077,60.166-34.006,82.095c-21.928,21.928-51.083,34.005-82.094,34.005  s-60.166-12.076-82.094-34.005c-21.928-21.928-34.006-51.084-34.006-82.095s12.077-60.167,34.006-82.095  C127.549,76.505,156.704,64.428,187.716,64.428z" data-original="#000000" class="active-path" style="fill:#000000" data-old_color="#7A7979"/><path d="M216.104,99.477l4.858-13.947c-34.076-11.872-72.101-4.596-99.23,18.984l9.689,11.147  C154.564,95.545,187.011,89.342,216.104,99.477z" data-original="#000000" class="active-path" style="fill:#000000" data-old_color="#7A7979"/><path d="M253.305,104.174c-4.132-3.554-8.58-6.79-13.215-9.615l-7.685,12.614c3.952,2.407,7.743,5.165,11.269,8.198L253.305,104.174  z" data-original="#000000" class="active-path" style="fill:#000000" data-old_color="#7A7979"/><path d="M155.658,260.205l-5.492,13.71c12.008,4.811,24.695,7.242,37.474,7.242c6.997,0,14.022-0.73,20.976-2.195l-3.046-14.452  C188.78,268.05,171.522,266.56,155.658,260.205z" data-original="#000000" class="active-path" style="fill:#000000" data-old_color="#7A7979"/><path d="M504.812,430.276l-38.446-38.311V0H78.487v36.77c-1.965,1.5-3.906,3.039-5.817,4.624H51.262v20.928  C22.752,95.135,7.188,136.633,7.188,180.528c0,43.894,15.564,85.393,44.074,118.204V512h372.21v-24.112l11.884,11.843  L504.812,430.276z M408.703,334.502l-34.194-34.074l-10.83,10.83l-26.931-28.785c20.47-29.792,31.494-65.018,31.494-101.945  c0-46.688-17.603-90.667-49.668-124.364h90.128L408.703,334.502L408.703,334.502z M70.507,63.319  c31.307-31.308,72.932-48.549,117.209-48.549c44.275,0,85.901,17.242,117.209,48.549c64.63,64.629,64.63,169.788,0,234.418  c-64.628,64.63-169.789,64.629-234.417,0C5.877,233.107,5.877,127.948,70.507,63.319z M315.368,308.18  c4.386-4.386,8.515-8.962,12.387-13.703l25.475,27.23l-8.129,8.13l-18.403,18.403l-25.528-27.286  C306.071,316.988,310.814,312.735,315.368,308.18z M325.959,369.866l48.568-48.568l109.379,108.997l-48.568,48.569L325.959,369.866z   M451.597,14.769v362.477l-28.124-28.026V41.395H302.761c-13.233-10.982-27.804-19.909-43.315-26.626H451.597z M93.256,14.769  h22.729c-7.835,3.392-15.427,7.35-22.729,11.851V14.769z M408.703,497.231H66.031v-183.36  c34.365,31.393,78.022,47.099,121.685,47.099c35.508,0,71.01-10.394,101.518-31.157l27.015,28.876l-11.195,11.195l103.65,103.287  L408.703,497.231L408.703,497.231z" data-original="#000000" class="active-path" style="fill:#000000" data-old_color="#7A7979"/><polygon points="426.171,394.8 374.519,343.149 353.231,364.437 363.676,374.88 374.519,364.036 415.726,405.244 " data-original="#000000" class="active-path" style="fill:#000000" data-old_color="#7A7979"/><rect x="431.472" y="410.955" transform="matrix(-0.7071 -0.7071 0.7071 -0.7071 454.0987 1024.7722)" width="15.629" height="14.769" data-original="#000000" class="active-path" style="fill:#000000" data-old_color="#7A7979"/><path d="M226.275,137.576c0-20.479-16.661-37.14-37.14-37.14s-37.14,16.661-37.14,37.14c0,11.217,5.005,21.28,12.891,28.095  c-17.85,8.93-30.142,27.385-30.142,48.666v39.149h108.78v-39.149c0-21.281-12.291-39.734-30.142-48.666  C221.271,158.856,226.275,148.792,226.275,137.576z M189.136,159.946c-12.334,0-22.37-10.035-22.37-22.37s10.035-22.37,22.37-22.37  c12.334,0,22.37,10.035,22.37,22.37S201.471,159.946,189.136,159.946z M228.757,238.717h-79.242v-24.38  c0-21.847,17.774-39.621,39.621-39.621s39.621,17.774,39.621,39.621V238.717z" data-original="#000000" class="active-path" style="fill:#000000" data-old_color="#7A7979"/><polygon points="112.774,392.179 112.774,406.948 278.218,406.948 278.218,399.564 278.218,392.179 " data-original="#000000" class="active-path" style="fill:#000000" data-old_color="#7A7979"/><polygon points="112.774,440.04 112.774,454.81 278.218,454.81 278.218,447.425 278.218,440.04 " data-original="#000000" class="active-path" style="fill:#000000" data-old_color="#7A7979"/></g> </svg>
