<?xml version="1.0"?>
<svg xmlns="http://www.w3.org/2000/svg" xmlns:xlink="http://www.w3.org/1999/xlink" version="1.1" id="Capa_1" x="0px" y="0px" viewBox="0 0 512.001 512.001" style="enable-background:new 0 0 512.001 512.001;" xml:space="preserve" width="512px" height="512px"><g><path style="fill:#5EAC24;" d="M348.381,409.573c-69.823-7.267-123.178-44.363-119.172-82.856  c4.006-38.494,63.857-63.808,133.679-56.542c69.823,7.267,152.473,52.665,149.007,85.961  C508.43,389.433,418.203,416.84,348.381,409.573z" data-original="#5EAC24"/><path style="fill:#4E901E;" d="M362.888,270.175c-69.823-7.267-129.673,18.048-133.679,56.542l77.276-14.24  c42.746-7.877,86.848-3.529,127.234,12.544l78.177,31.115C515.36,322.841,432.71,277.442,362.888,270.175z" data-original="#4E901E"/><path style="fill:#47821C;" d="M457.823,359.673L234.964,336.48c-5.007-0.521-8.643-5.003-8.122-10.009s5.008-8.636,10.009-8.122  l222.859,23.193c5.007,0.521,8.643,5.003,8.122,10.009C467.345,356.237,463.732,360.178,457.823,359.673z" data-original="#47821C"/><path style="fill:#6DC82A;" d="M377.013,334.785c-58.706-38.493-123.499-43.461-144.72-11.096s9.166,89.806,67.871,128.299  s151.45,55.539,169.805,27.545C488.325,451.539,435.718,373.279,377.013,334.785z" data-original="#6DC82A"/><path style="fill:#5EAC24;" d="M300.163,451.988c-58.706-38.493-89.092-95.935-67.871-128.299l54.817,70.253  c23.564,30.2,56.345,51.879,93.359,61.742l89.501,23.848C451.613,507.527,358.869,490.48,300.163,451.988z" data-original="#5EAC24"/><path style="fill:#47821C;" d="M430.298,442.621l-61.32-40.208l27.202-5.178c4.945-0.942,8.191-5.712,7.249-10.658  c-0.942-4.945-5.711-8.194-10.658-7.249l-45.728,8.703l-32.855-21.542l27.202-5.178c4.945-0.942,8.191-5.712,7.249-10.658  s-5.713-8.193-10.658-7.249l-45.728,8.703l-49.331-32.347c-4.21-2.761-9.86-1.585-12.62,2.624c-2.76,4.209-1.585,9.86,2.624,12.62  l49.332,32.348l10.248,45.405c2.309,9.009,10.223,7.037,10.897,6.885c4.911-1.108,7.993-5.987,6.885-10.897l-6.097-27.01  l32.855,21.542l10.248,45.405c2.312,8.919,10.222,7.037,10.897,6.885c4.911-1.108,7.993-5.987,6.885-10.897l-6.097-27.01  l61.32,40.208c6.205,3.443,10.87,0.044,12.62-2.624C435.681,451.032,434.507,445.381,430.298,442.621z" data-original="#47821C"/><path style="fill:#91DC5A;" d="M163.62,409.573c69.823-7.267,123.178-44.363,119.172-82.856  c-4.006-38.494-63.857-63.808-133.679-56.542C79.29,277.442-3.359,322.841,0.105,356.137S93.797,416.84,163.62,409.573z" data-original="#91DC5A"/><path style="fill:#6DC82A;" d="M149.113,270.175c69.823-7.267,129.673,18.048,133.679,56.542l-86.805-19.019  c-41.17-9.02-84.169-4.174-122.299,13.784L0.105,356.137C-3.359,322.841,79.29,277.442,149.113,270.175z" data-original="#6DC82A"/><path style="fill:#B6E892;" d="M134.988,334.785c58.706-38.493,123.499-43.461,144.72-11.096s-9.166,89.806-67.871,128.299  S60.387,507.527,42.032,479.533S76.282,373.279,134.988,334.785z" data-original="#B6E892"/><path style="fill:#91DC5A;" d="M211.837,451.988c58.706-38.493,89.092-95.935,67.871-128.299l-38.989,54.039  c-28.945,40.117-71.011,68.847-118.911,81.211l-79.777,20.593C60.387,507.527,153.132,490.48,211.837,451.988z" data-original="#91DC5A"/><g>
	<path style="fill:#47821C;" d="M44.168,351.551c-0.521-5.007,3.115-9.488,8.122-10.009l222.859-23.193   c5.007-0.521,9.488,3.115,10.009,8.122c0.521,5.007-3.115,9.488-8.122,10.009L54.177,359.673   C46.923,360.133,44.656,356.238,44.168,351.551z" data-original="#47821C"/>
	<path style="fill:#47821C;" d="M281.697,322.385c-2.76-4.208-8.41-5.386-12.62-2.624l-49.331,32.347l-45.728-8.703   c-4.943-0.943-9.717,2.305-10.658,7.249c-0.942,4.945,2.305,9.717,7.249,10.658l27.202,5.178l-32.855,21.542l-45.728-8.703   c-4.943-0.942-9.717,2.305-10.658,7.249c-0.942,4.945,2.305,9.717,7.249,10.658l27.202,5.178l-61.32,40.208   c-4.209,2.76-5.385,8.41-2.624,12.62c1.75,2.668,7.612,5.184,12.62,2.624l61.32-40.208l-6.097,27.01   c-1.108,4.911,1.974,9.789,6.885,10.897c0.676,0.152,8.587,1.858,10.897-6.885l10.248-45.405l32.855-21.542l-6.097,27.01   c-1.108,4.911,1.974,9.789,6.885,10.897c0.676,0.152,9.255,1.241,10.897-6.885l10.248-45.405l49.332-32.348   C283.283,332.245,284.458,326.594,281.697,322.385z" data-original="#47821C"/>
</g><path style="fill:#C70024;" d="M443.518,123.686c0,0,10.62-87.611-74.597-72.136c-7.902,1.435-15.935-1.484-21.263-7.495  c-18.331-20.674-65.255-57.388-116.365,30.835c-2.413,0.654,112.546,85.054,112.546,85.054L443.518,123.686z" data-original="#C70024"/><g>
	<path style="fill:#D80027;" d="M70.591,123.686c0,0-10.62-87.611,74.597-72.136c7.903,1.435,15.935-1.484,21.263-7.495   c18.331-20.674,65.255-57.388,116.365,30.835c2.413,0.654-112.546,85.054-112.546,85.054L70.591,123.686z" data-original="#D80027"/>
	<path style="fill:#D80027;" d="M353.585,122.206c0,0,53.807-26.748,113.137-5.545c9.341,3.338,13.542,14.185,8.871,22.935   c-12.452,23.328-33.625,71.073-32.254,126.249c1.932,77.747-100.817,155.489-204.066,70.481   C241.188,333.544,353.585,122.206,353.585,122.206z" data-original="#D80027"/>
</g><path style="fill:#C70024;" d="M382.603,112.602c-1.959,20.886-1.678,51.34,11.872,73.516  c22.642,37.057,49.903,143.674-48.141,186.254l0,0c-32.32,4.186-69.657-5.247-107.062-36.043  c1.917-2.779,114.314-214.118,114.314-214.118S364.788,116.643,382.603,112.602z" data-original="#C70024"/><path style="fill:#FF0C38;" d="M158.415,122.206c0,0-53.807-26.748-113.137-5.545c-9.341,3.338-13.542,14.185-8.871,22.935  c12.452,23.328,33.625,71.073,32.254,126.249c-1.932,77.747,100.817,155.489,204.067,70.481  C270.812,333.544,158.415,122.206,158.415,122.206z" data-original="#FF0C38"/><path style="fill:#D80027;" d="M129.397,112.602c1.959,20.886,1.678,51.34-11.872,73.516  c-22.642,37.057-49.903,143.674,48.141,186.254l0,0c32.32,4.186,69.657-5.247,107.062-36.043  c-1.917-2.779-114.314-214.118-114.314-214.118S147.212,116.643,129.397,112.602z" data-original="#D80027"/><path style="fill:#FF0C38;" d="M356.461,85.292c0,0-64.165-81.448-146.572,55.523c0.629,0.465,56.994,45.298,56.994,45.298  L356.461,85.292z" data-original="#FF0C38"/><path style="fill:#D80027;" d="M210.075,140.959c3.527,2.772,56.809,45.154,56.809,45.154l89.578-100.821  c0,0-2.943-3.733-8.373-8.256h-0.003C348.086,77.036,277.893,59.776,210.075,140.959z" data-original="#D80027"/><path style="fill:#FF3F62;" d="M155.539,85.292c0,0,64.165-81.448,146.572,55.523c-0.629,0.465-56.994,45.298-56.994,45.298  L155.539,85.292z" data-original="#FF3F62"/><path style="fill:#FF0C38;" d="M163.006,93.697l82.111,92.417c0,0,56.365-44.835,56.994-45.298  c-5.273-8.765-10.471-16.629-15.583-23.684C278.287,109.093,236.803,73.711,163.006,93.697z" data-original="#FF0C38"/><path style="fill:#FF3F62;" d="M368.536,201.63c-16.063-28.365-8.587-72.147-8.587-72.147l-19.548-20.996L256,188.048  l-84.402-79.561l-19.548,20.996c0,0,7.476,43.782-8.587,72.147C125.065,234.121,112.42,338.42,256,338.42  S386.935,234.121,368.536,201.63z" data-original="#FF3F62"/><path style="fill:#FF0C38;" d="M286.6,159.203L256,188.048l-84.402-79.561l-19.548,20.996c0,0,7.476,43.782-8.587,72.147  C125.065,234.121,112.42,338.42,256,338.42c35.456,0,61.371-6.367,80.04-16.436C329.262,247.332,309.949,195.369,286.6,159.203z" data-original="#FF0C38"/><path style="fill:#FF728B;" d="M370.097,69.808C298.77,87.922,262.117,145.79,244.759,186.113l22.855,31.048  c23.344-8.661,42.449-20.295,58.04-33.302c8.904-7.428,13.28-18.968,11.694-30.454l-2.925-21.171l14-0.001  c13.237-0.001,25.325-7.705,30.736-19.785c3.889-8.681,6.786-16.705,8.922-23.574C391.559,77.7,381.439,66.928,370.097,69.808z" data-original="#FF728B"/><path style="fill:#FF3F62;" d="M271.589,138.629c-11.889,16.323-20.609,33.03-26.831,47.484l22.855,31.048  c14.726-5.463,27.761-12.112,39.295-19.539C296.532,173.462,284.365,154.118,271.589,138.629z" data-original="#FF3F62"/><path style="fill:#FF728B;" d="M282.817,227.394l-21.864-44.016l-4.954,4.67l-84.402-79.561l-19.548,20.996  c0,0,7.476,43.782-8.587,72.147c-18.399,32.491-31.045,136.79,112.536,136.79c13.385,0,25.408-0.909,36.2-2.579  C296.159,282.468,282.817,227.394,282.817,227.394z" data-original="#FF728B"/><path style="fill:#FF3F62;" d="M227.602,336.872c-28.327-27.639-43.306-75.31-30.622-128.134  c6.225-25.926,5.773-51.403,2.156-74.286l-27.545-25.966l-19.548,20.996c0,0,7.476,43.782-8.587,72.147  C126.373,231.801,114.274,323.878,227.602,336.872z" data-original="#FF3F62"/><path style="fill:#FFA5B5" d="M125.761,88.875c2.137,6.868,5.033,14.892,8.922,23.574c5.412,12.08,17.501,19.784,30.736,19.785  l14,0.001l-2.925,21.171c-1.586,11.485,2.79,23.027,11.694,30.454c23.07,19.246,53.79,35.508,94.628,43.534  c0,0-25.899-128.845-139.071-157.586C132.403,66.928,122.284,77.7,125.761,88.875z" data-original="#FFA5B5" class="active-path"/></g> </svg>
