<?xml version="1.0"?>
<svg xmlns="http://www.w3.org/2000/svg" height="512px" viewBox="0 -43 512 512" width="512px"><g><path d="m503.464844 426.667969h-494.929688c-4.710937 0-8.535156-3.816407-8.535156-8.535157v-409.597656c0-4.722656 3.824219-8.535156 8.535156-8.535156h494.929688c4.710937 0 8.535156 3.8125 8.535156 8.535156v409.597656c0 4.71875-3.824219 8.535157-8.535156 8.535157zm-486.398438-17.066407h477.867188v-392.535156h-477.867188zm0 0" data-original="#000000" class="active-path" data-old_color="#ffffff" fill="#ffffff"/><path d="m469.332031 392.535156h-426.664062c-4.710938 0-8.535157-3.816406-8.535157-8.535156v-341.332031c0-4.71875 3.824219-8.535157 8.535157-8.535157h426.664062c4.710938 0 8.535157 3.816407 8.535157 8.535157v341.332031c0 4.71875-3.824219 8.535156-8.535157 8.535156zm-418.132812-17.070312h409.601562v-324.265625h-409.601562zm0 0" data-original="#000000" class="active-path" data-old_color="#ffffff" fill="#ffffff"/><path d="m469.332031 392.535156h-186.785156c-3.363281 0-6.410156-1.972656-7.789063-5.046875-1.375-3.054687-.828124-6.644531 1.40625-9.15625l127.054688-142.929687c3.234375-3.652344 9.511719-3.652344 12.753906 0l59.734375 67.199218c1.390625 1.5625 2.152344 3.574219 2.152344 5.664063v75.734375c.007813 4.71875-3.816406 8.535156-8.527344 8.535156zm-167.78125-17.070312h159.25v-63.957032l-51.199219-57.597656zm0 0" data-original="#000000" class="active-path" data-old_color="#ffffff" fill="#ffffff"/><path d="m282.546875 392.535156h-239.878906c-4.710938 0-8.535157-3.816406-8.535157-8.535156v-114.132812c0-2.089844.769532-4.105469 2.160157-5.667969l128-144c3.234375-3.652344 9.515625-3.652344 12.757812 0l170.664063 192c2.878906 3.234375 2.878906 8.097656 0 11.332031l-58.785156 66.136719c-1.621094 1.824219-3.941407 2.867187-6.382813 2.867187zm-231.347656-17.070312h227.515625l51.199218-57.597656-159.246093-179.15625-119.46875 134.398437zm0 0" data-original="#000000" class="active-path" data-old_color="#ffffff" fill="#ffffff"/><path d="m349.867188 179.199219c-23.527344 0-42.667969-19.140625-42.667969-42.664063 0-23.527344 19.140625-42.667968 42.667969-42.667968 23.527343 0 42.667968 19.140624 42.667968 42.667968 0 23.523438-19.140625 42.664063-42.667968 42.664063zm0-68.265625c-14.113282 0-25.601563 11.484375-25.601563 25.601562 0 14.113282 11.488281 25.597656 25.601563 25.597656 14.113281 0 25.597656-11.484374 25.597656-25.597656 0-14.117187-11.484375-25.601562-25.597656-25.601562zm0 0" data-original="#000000" class="active-path" data-old_color="#ffffff" fill="#ffffff"/></g> </svg>
