<?xml version="1.0"?>
<svg xmlns="http://www.w3.org/2000/svg" xmlns:xlink="http://www.w3.org/1999/xlink" version="1.1" id="Capa_1" x="0px" y="0px" viewBox="0 0 366.592 366.592" style="enable-background:new 0 0 366.592 366.592;" xml:space="preserve" width="512px" height="512px"><g><g>
	<g>
		<path d="M346.368,300.032h-9.728V116.224c0-3.072-2.048-5.12-5.12-5.12h-74.752v-46.08c11.264-2.56,19.968-12.8,19.968-25.088    c0-12.8-18.432-34.304-22.528-38.4C253.184,0.512,251.648,0,250.624,0c-1.536,0-3.072,0.512-3.584,1.536    c-3.584,4.096-22.528,25.6-22.528,38.4s9.728,23.552,22.016,25.6v45.568h-54.272v-46.08c11.264-2.56,19.968-12.8,19.968-25.088    c0-12.8-18.432-34.304-22.528-38.4c-2.048-2.048-5.632-2.048-7.68,0c-3.584,4.096-22.528,25.6-22.528,38.4    s9.728,23.552,22.016,25.6v45.568h-53.76v-46.08c11.264-2.56,19.968-12.8,19.968-25.088c0-12.8-18.432-34.304-22.528-38.4    c-2.048-2.048-5.632-2.048-7.68,0c-3.584,4.096-22.528,25.6-22.528,38.4s9.728,23.552,22.016,25.6v45.568h-81.92    c-3.072,0-5.12,2.048-5.12,5.12v183.808h-9.728c-9.216,0-16.384,7.168-16.384,16.384v8.704c0,9.216,7.168,16.384,16.384,16.384    h0.512l7.168,19.968c1.024,3.584,5.12,5.12,12.288,5.12H326.4c6.656,0,10.752-1.536,12.288-5.12l7.168-19.968h0.512    c9.216,0,16.384-7.168,16.384-16.384v-8.704C362.752,307.712,355.584,300.032,346.368,300.032z M40.192,260.096v-30.208H326.4    v30.208H40.192z M326.4,270.336v29.696H40.192v-29.696H326.4z M40.192,219.648v-31.232c6.144,6.144,14.848,10.24,24.576,10.24    c12.8,0,23.552-6.656,29.696-16.896c6.144,10.24,16.896,16.896,29.696,16.896s23.552-6.656,29.696-16.896    c6.144,10.24,16.896,16.896,29.696,16.896c12.8,0,23.552-6.656,29.696-16.896c6.144,10.24,16.896,16.896,29.696,16.896    S266.496,192,272.64,181.76c6.144,10.24,16.896,16.896,29.696,16.896c9.728,0,18.432-4.096,24.576-10.24v31.232H40.192z     M234.752,39.936c0-5.632,8.192-17.92,15.872-27.136c7.68,9.216,15.872,21.504,15.872,27.136c0,8.704-7.168,15.872-15.872,15.872    C241.408,55.808,234.752,48.64,234.752,39.936z M169.728,39.936c0-5.632,8.192-17.92,15.872-27.136    c7.68,9.216,15.872,21.504,15.872,27.136c0,8.704-7.168,15.872-15.872,15.872S169.728,48.64,169.728,39.936z M105.216,39.936    c0-5.632,8.192-17.92,15.872-27.136c7.68,9.216,15.872,21.504,15.872,27.136c0,8.704-7.168,15.872-15.872,15.872    C112.384,55.808,105.216,48.64,105.216,39.936z M39.68,163.328v-41.984h0.512H326.4v42.496c0,13.312-10.752,24.576-24.576,24.576    s-24.576-10.752-24.576-24.576c0-3.072-2.048-5.12-5.12-5.12c-3.072,0-5.12,2.048-5.12,5.12c0,13.312-10.752,24.576-24.576,24.576    c-13.312,0-24.576-10.752-24.576-24.576c0-3.072-2.048-5.12-5.12-5.12c-3.072,0-5.12,2.048-5.12,5.12    c0,13.312-10.752,24.576-24.576,24.576c-13.312,0-24.576-10.752-24.576-24.576c0-3.072-2.048-5.12-5.12-5.12    c-3.072,0-5.12,2.048-5.12,5.12c0,13.312-10.752,24.576-24.576,24.576c-13.312,0-24.576-10.752-24.576-24.576    c0-3.072-2.048-5.12-5.12-5.12c-3.072,0-5.12,2.048-5.12,5.12c0,13.312-10.752,24.576-24.576,24.576    c-13.824,0-24.576-10.752-24.576-24.576C39.68,163.84,39.68,163.84,39.68,163.328z M329.984,356.352c-0.512,0-2.048,0-3.072,0    H40.192c-1.536,0-2.56,0-3.072,0L32,341.504h303.104L329.984,356.352z M352.512,325.12c0,3.584-2.56,6.144-6.144,6.144H20.224    c-3.584,0-6.144-2.56-6.144-6.144v-8.704c0-3.584,2.56-6.144,6.144-6.144h326.144c3.584,0,6.144,2.56,6.144,6.144V325.12z" data-original="#000000" class="active-path" data-old_color="#ffffff" fill="#ffffff"/>
	</g>
</g></g> </svg>
