<?xml version="1.0"?>
<svg xmlns="http://www.w3.org/2000/svg" xmlns:xlink="http://www.w3.org/1999/xlink" version="1.1" id="Capa_1" x="0px" y="0px" viewBox="0 0 425.472 425.472" style="enable-background:new 0 0 425.472 425.472;" xml:space="preserve" width="512px" height="512px"><g><g>
	<g>
		<path d="M389.472,198.256h-149.52v-92c-0.012-4.418-3.603-7.99-8.021-7.979c-1.304,0.003-2.588,0.326-3.739,0.939l-38.4,20.72    c-2.603,1.386-4.232,4.091-4.24,7.04v71.2H36.032C16.194,198.114,0.062,214.146,0,233.984    c-0.044,14.005,8.057,26.758,20.751,32.672v120.88c-0.133,9.366,7.352,17.066,16.718,17.199c0.028,0,0.055,0.001,0.082,0.001    h352.56c9.367,0,16.96-7.593,16.96-16.96v-62.56c3.185-4.732,4.909-10.296,4.96-16v-47.04c8.53-6.784,13.482-17.101,13.44-28    C425.384,214.343,409.305,198.3,389.472,198.256z M201.552,131.776l22.4-12.08v78.56h-22.4V131.776z M391.072,387.776    c0,0.53-0.43,0.96-0.96,0.96H37.552c-0.53,0-0.96-0.43-0.96-0.96v-27.36h354.48V387.776z M391.072,344.656H36.752v-32.96h104.72    c7.327,11.046,22.221,14.06,33.266,6.734c2.672-1.772,4.961-4.062,6.734-6.734h172.24c1.195,15.817,14.985,27.67,30.802,26.475    c2.228-0.168,4.429-0.596,6.558-1.275V344.656z M36.752,295.696v-25.44c2.123-0.003,4.24-0.218,6.32-0.64l62.8-6.96l32,11.36    v21.84L36.752,295.696z M185.952,295.696v-24.88l24.72-5.84l48,15.6c1.661,0.561,3.459,0.561,5.12,0l51.68-18.08l37.84,13.44v20    L185.952,295.696z M399.872,251.296l0.08-0.08c-2.375,1.445-3.828,4.02-3.84,6.8v50.72c-0.003,7.334-5.951,13.277-13.286,13.274    c-7.33-0.003-13.271-5.944-13.274-13.274v-38.64c-0.013-3.389-2.161-6.402-5.36-7.52l-45.84-16c-0.847-0.307-1.739-0.47-2.64-0.48    c-0.901,0.01-1.793,0.172-2.64,0.48l-51.84,18.16l-48-15.44c-1.413-0.396-2.907-0.396-4.32,0l-33.04,8    c-3.689,0.87-6.261,4.211-6.16,8v33.6c0,4.551-3.689,8.24-8.24,8.24c-4.551,0-8.24-3.689-8.24-8.24v-30.64    c-0.001-3.368-2.112-6.375-5.28-7.52l-38.64-13.84c-1.154-0.407-2.385-0.544-3.6-0.4l-65.44,7.28    c-10.781,2.405-21.47-4.385-23.874-15.166c-2.405-10.781,4.385-21.47,15.166-23.874c1.467-0.327,2.965-0.488,4.468-0.479h353.44    c11.001-0.12,20.016,8.7,20.137,19.701C409.686,241.059,405.976,247.665,399.872,251.296z" data-original="#000000" class="active-path" data-old_color="#ffffff" fill="#ffffff"/>
	</g>
</g><g>
	<g>
		<path d="M212.752,20.736c-18.56,0-21.52,56-21.52,56.48c-0.133,11.884,9.394,21.626,21.279,21.759    c0.08,0.001,0.161,0.001,0.241,0.001c11.885,0,21.52-9.635,21.52-21.52C234.272,76.736,231.312,20.736,212.752,20.736z     M213.455,83.359c-3.027,0.366-5.777-1.79-6.143-4.817c-0.053-0.441-0.053-0.886,0-1.327c0.798-10.972,2.619-21.846,5.44-32.48    c2.848,10.631,4.696,21.505,5.52,32.48C218.638,80.242,216.481,82.993,213.455,83.359z" data-original="#000000" class="active-path" data-old_color="#ffffff" fill="#ffffff"/>
	</g>
</g></g> </svg>
