<?xml version="1.0"?>
<svg xmlns="http://www.w3.org/2000/svg" xmlns:xlink="http://www.w3.org/1999/xlink" version="1.1" id="Capa_1" x="0px" y="0px" viewBox="0 0 371.2 371.2" style="enable-background:new 0 0 371.2 371.2;" xml:space="preserve" width="512px" height="512px" class=""><g><g>
	<g>
		<path d="M364,40.8H7.2C3.2,40.8,0,44,0,48v180.4c0,4,3.2,7.2,7.2,7.2H364c4,0,7.2-3.2,7.2-7.2V48C371.2,44,368,40.8,364,40.8z     M14.4,55.2h38.8C50,75.2,34.4,90.8,14.4,94V55.2z M14.4,221.6v-38.8c20,3.2,35.6,18.8,38.8,38.8H14.4z M356.8,221.6H318    c3.2-20,18.8-35.6,38.8-38.8V221.6z M356.8,168c-28,3.2-50,25.6-53.2,53.2h-236c-3.2-28-25.6-50-53.2-53.2v-59.6    c28-3.2,50-25.6,53.2-53.2h236c3.2,28,25.6,50,53.2,53.2V168z M356.8,94c-20-3.2-35.6-18.8-38.8-38.8h38.8V94z" data-original="#000000" class="active-path" data-old_color="#ffffff" fill="#ffffff"/>
	</g>
</g><g>
	<g>
		<path d="M94.8,114.4c-13.2,0-24,10.8-24,24s10.8,24,24,24s24-10.8,24-24S108,114.4,94.8,114.4z M94.8,148c-5.2,0-9.6-4.4-9.6-9.6    s4-9.6,9.6-9.6c5.2,0,9.6,4.4,9.6,9.6S100,148,94.8,148z" data-original="#000000" class="active-path" data-old_color="#ffffff" fill="#ffffff"/>
	</g>
</g><g>
	<g>
		<path d="M276.4,114.4c-13.2,0-24,10.8-24,24s10.8,24,24,24c13.2,0,24-10.8,24-24S289.6,114.4,276.4,114.4z M276.4,148    c-5.2,0-9.6-4.4-9.6-9.6s4.4-9.6,9.6-9.6c5.2,0,9.6,4.4,9.6,9.6S281.6,148,276.4,148z" data-original="#000000" class="active-path" data-old_color="#ffffff" fill="#ffffff"/>
	</g>
</g><g>
	<g>
		<path d="M364,251.6H7.2c-4,0-7.2,3.2-7.2,7.2c0,4,3.2,7.2,7.2,7.2H364c4,0,7.2-3.2,7.2-7.2C371.2,254.8,368,251.6,364,251.6z" data-original="#000000" class="active-path" data-old_color="#ffffff" fill="#ffffff"/>
	</g>
</g><g>
	<g>
		<path d="M364,284H7.2c-4,0-7.2,3.2-7.2,7.2s3.2,7.2,7.2,7.2H364c4,0,7.2-3.2,7.2-7.2S368,284,364,284z" data-original="#000000" class="active-path" data-old_color="#ffffff" fill="#ffffff"/>
	</g>
</g><g>
	<g>
		<path d="M364,316H7.2c-4,0-7.2,3.2-7.2,7.2s3.2,7.2,7.2,7.2H364c4,0,7.2-3.2,7.2-7.2S368,316,364,316z" data-original="#000000" class="active-path" data-old_color="#ffffff" fill="#ffffff"/>
	</g>
</g><g>
	<g>
		<path d="M213.2,142.4c-1.2-2.4-3.2-4.4-5.2-6c-2.4-1.6-5.2-3.2-8.4-4c-2-0.8-4-1.2-6-2v-18c0.4,0,0.8,0.4,0.8,0.4    c2,1.6,3.2,3.6,4.8,6.4c1.2,2,2,3.2,2.8,4s2,1.2,3.6,1.2c2,0,3.2-0.8,4.4-2c1.2-1.2,2-2.8,2-4.8s-0.4-4-1.6-6    c-0.8-2-2.4-4-4.8-5.6c-2-2-4.8-3.2-8-4.4c-1.2-0.4-2.8-0.8-4.4-1.2V89.6c0-4-3.2-7.2-7.2-7.2s-7.2,3.2-7.2,7.2v10.8    c-2.4,0.4-4.8,1.2-7.2,2c-4,1.6-7.2,4-9.2,7.2c-2,3.2-3.2,6.4-3.2,10.4s1.2,7.6,3.2,10.4c2,2.8,4.8,4.8,8.4,6.8    c2.4,1.2,5.2,2,8.4,2.8v22c0,0.4-0.4,0.4-0.4,0.4c-2-0.8-3.6-2.4-4.4-3.6c-1.2-1.6-2-3.6-2.8-5.6s-1.6-3.2-2.8-4.4    c-1.2-0.8-2.4-1.6-4-1.6c-2,0-3.6,0.8-4.8,2c-1.2,1.2-2,2.8-2,4.4c0,3.2,1.2,6,3.2,9.2c2,3.2,4.8,5.6,8,7.6c2.8,1.6,6,2.8,10,3.2    v9.6c0,4,3.2,7.2,7.2,7.2s7.2-3.2,7.2-7.2v-9.6c3.2-0.4,6-1.2,8.4-2.4c4.4-2,7.6-4.8,10-8c2.4-3.6,3.2-7.2,3.2-11.6    C215.2,148,214.4,144.8,213.2,142.4z M179.6,126.4c-0.8-0.4-1.6-0.8-2-0.8c-1.2-0.8-2.4-1.6-3.2-2.8c-0.8-1.2-1.2-2.4-1.2-3.6    c0-2.4,1.2-4.4,3.6-6c0.8-0.4,1.6-0.8,2.8-1.2V126.4z M196.8,161.2c-0.8,0.8-2,1.2-3.2,1.6v-18c2,0.4,3.6,1.2,5.2,2.8    c1.6,1.6,2,3.6,2,6C200.8,156.8,199.6,159.2,196.8,161.2z" data-original="#000000" class="active-path" data-old_color="#ffffff" fill="#ffffff"/>
	</g>
</g></g> </svg>
