<?xml version="1.0"?>
<svg xmlns="http://www.w3.org/2000/svg" height="512px" viewBox="-42 0 511 511.99717" width="512px"><g><path d="m377.980469 511.996094h-328.3125c-21.460938 0-38.929688-17.457032-38.929688-38.925782v-10.648437c0-22.238281 11.9375-42.90625 31.148438-53.921875l53.429687-30.65625c-59.0625-.605469-90.839844-31.792969-92.332031-33.289062-2.21875-2.226563-3.03125-5.492188-2.117187-8.488282.914062-3.011718 3.394531-5.265625 6.484374-5.886718.15625-.0625 44.347657-14.15625 44.347657-166.878907 0-53.066406 15.382812-94.359375 45.726562-122.730469 45.832031-42.851562 109.246094-40.828124 116.398438-40.4375 7.15625-.359374 70.558593-2.421874 116.386719 40.4375 30.351562 28.371094 45.738281 69.664063 45.738281 122.730469 0 151.160157 43.910156 166.785157 44.34375 166.878907 3.082031.621093 5.574219 2.882812 6.484375 5.886718.90625 3.003906.09375 6.261719-2.113282 8.488282-1.496093 1.503906-33.28125 32.683593-92.351562 33.296874l53.449219 30.648438c19.207031 11.015625 31.144531 31.683594 31.144531 53.921875v10.648437c0 21.46875-17.457031 38.925782-38.925781 38.925782zm-258.761719-152.636719c4.726562 0 8.984375 2.917969 10.65625 7.46875 1.835938 5.015625-.015625 10.535156-4.496094 13.4375l-75.003906 43.03125c-13.917969 7.996094-22.570312 22.972656-22.570312 39.125v10.648437c0 12.046876 9.804687 21.859376 21.863281 21.859376h328.3125c12.054687 0 21.859375-9.800782 21.859375-21.859376v-10.648437c0-16.152344-8.644532-31.128906-22.570313-39.125l-74.609375-42.800781c-4.875-3.132813-6.726562-8.660156-4.890625-13.679688 1.835938-5.015625 6.808594-8.003906 12.125-7.371094 47.214844 6.058594 78.945313-9.878906 93.503907-19.753906-17.339844-14.1875-44.523438-55.695312-44.523438-176.398437 0-48.085938-13.527344-85.152344-40.214844-110.160157-42.085937-39.464843-103.683594-36.011718-104.289062-35.941406-.367188.015625-.753906.015625-1.121094 0-.605469-.050781-62.203125-3.523437-104.289062 35.941406-26.679688 25.015626-40.207032 62.074219-40.207032 110.160157 0 120.824219-27.246094 162.292969-44.574218 176.441406 14.472656 9.90625 45.992187 25.777344 93.554687 19.71875.511719-.058594 1-.09375 1.484375-.09375zm0 0" data-original="#000000" class="active-path" data-old_color="#ffffff" fill="#ffffff"/></g> </svg>
