<?xml version="1.0"?>
<svg xmlns="http://www.w3.org/2000/svg" id="Capa_1" enable-background="new 0 0 512 512" height="512px" viewBox="0 0 512 512" width="512px"><g><path d="m504.5 248.5h-17.639c15.319-12.384 25.139-31.313 25.139-52.5 0-4.143-3.357-7.5-7.5-7.5h-61.286c-3.842-50.271-45.976-90-97.214-90-4.143 0-7.5 3.357-7.5 7.5v52.874c-13.379-11.382-29.128-20.052-46.395-25.159 21.298-12.458 35.645-35.56 35.645-61.965 0-39.563-32.187-71.75-71.75-71.75s-71.75 32.187-71.75 71.75c0 26.405 14.347 49.507 35.645 61.965-17.267 5.107-33.016 13.777-46.395 25.159v-52.874c0-4.143-3.358-7.5-7.5-7.5-51.238 0-93.372 39.729-97.214 90h-61.286c-4.142 0-7.5 3.357-7.5 7.5 0 21.187 9.82 40.116 25.139 52.5h-17.639c-4.142 0-7.5 3.357-7.5 7.5 0 91.529 48.726 175.75 127.656 221.539l-11.803 23.606c-1.163 2.325-1.039 5.086.328 7.298 1.367 2.211 3.781 3.557 6.38 3.557h266.879c2.6 0 5.014-1.346 6.38-3.557 1.366-2.212 1.491-4.973.328-7.298l-11.804-23.606c78.929-45.79 127.656-130.01 127.656-221.539 0-4.143-3.357-7.5-7.5-7.5zm-120.456 0c2.304-16.03 11.873-29.739 25.257-37.678.322-.158.634-.333.928-.534 7.619-4.313 16.409-6.788 25.771-6.788h30.456c-3.652 25.407-25.554 45-51.956 45zm14.456-48.594c-8.055 5.403-14.884 12.493-19.984 20.761-5.02-17.38-13.649-33.242-25.016-46.726v-29.897c25.407 3.652 45 25.554 45 51.956zm60.915 46.425c12.09-10.801 20.275-25.876 22.159-42.831h14.892c-2.934 20.423-17.672 37.078-37.051 42.831zm-31.229-57.364c-5.123.594-10.073 1.758-14.784 3.437-1.744-33.051-27.373-59.863-59.902-63.477v-15.089c39.675 3.59 71.314 35.393 74.686 75.129zm-228.936-117.217c0-31.292 25.458-56.75 56.75-56.75s56.75 25.458 56.75 56.75-25.458 56.75-56.75 56.75-56.75-25.458-56.75-56.75zm56.75 71.75c59.511 0 108.371 46.452 112.244 105h-15.03c-3.842-50.271-45.976-90-97.214-90s-93.372 39.729-97.214 90h-15.03c3.873-58.548 52.732-105 112.244-105zm36.745 105c-3.484-17.096-18.635-30-36.745-30s-33.261 12.904-36.745 30h-15.21c3.651-25.407 25.554-45 51.956-45 26.401 0 48.304 19.593 51.956 45zm-15.535 0h-42.42c3.096-8.729 11.432-15 21.21-15 9.777 0 18.114 6.271 21.21 15zm45.863 0c-3.744-33.702-32.39-60-67.073-60s-63.329 26.298-67.073 60h-15.07c3.804-41.987 39.182-75 82.144-75 42.961 0 78.34 33.013 82.144 75zm-225.573 0c-26.402 0-48.304-19.593-51.956-45h30.456c9.362 0 18.152 2.475 25.771 6.788.294.201.606.376.928.534 13.383 7.939 22.953 21.648 25.256 37.678zm35.984-27.833c-5.1-8.268-11.929-15.358-19.984-20.761v-3.906c0-26.401 19.593-48.304 45-51.956v29.897c-11.367 13.485-19.995 29.346-25.016 46.726zm25.016-106.829v15.089c-32.529 3.614-58.158 30.426-59.902 63.477-4.711-1.679-9.66-2.843-14.784-3.437 3.372-39.736 35.012-71.539 74.686-75.129zm-142.966 89.662h14.892c1.884 16.955 10.068 32.031 22.159 42.831-19.379-5.753-34.117-22.408-37.051-42.831zm356.967 263.5h-174.94c-4.142 0-7.5 3.357-7.5 7.5s3.358 7.5 7.5 7.5h172.244l7.5 15h-242.609l7.5-15h25.365c4.142 0 7.5-3.357 7.5-7.5s-3.358-7.5-7.5-7.5h-28.061c-74.65-41.298-121.758-118.605-124.384-203.5h481.768c-2.626 84.895-49.734 162.202-124.383 203.5z" data-original="#000000" class="active-path" data-old_color="#000000" fill="#FFFFFF"/></g> </svg>
