<?xml version="1.0"?>
<svg xmlns="http://www.w3.org/2000/svg" xmlns:xlink="http://www.w3.org/1999/xlink" version="1.1" id="Layer_1" x="0px" y="0px" viewBox="0 0 512 512" style="enable-background:new 0 0 512 512;" xml:space="preserve" width="512px" height="512px" class=""><g><g transform="translate(1 1)">
	<g>
		<path d="M485.4,423.96c-50.93-27.008-89.996-42.152-124.772-47.958l3.599-4.948c1.707-1.707,2.56-4.267,1.707-6.827l-7.997-31.987    c21.151-29.9,33.597-67.281,33.597-102.839v-17.067V162.84c16.213-12.8,25.6-32.427,25.6-52.907    c0-37.547-30.72-68.267-68.267-68.267c-10.24,0-19.627,1.707-28.16,5.973C312.173,19.48,285.72-1,255-1    c-30.72,0-57.173,20.48-65.707,48.64c-8.533-4.267-17.92-5.973-28.16-5.973c-37.547,0-68.267,30.72-68.267,68.267    c0,20.48,9.387,40.107,25.6,52.907v49.493V229.4c0,35.558,12.446,72.939,33.597,102.839l-7.997,31.987    c0,1.707,0,4.267,1.707,6.827l3.599,4.948c-34.776,5.807-73.842,20.95-124.772,47.958C8.387,431.64-1,447.853-1,465.773v36.693    c0,5.12,3.413,8.533,8.533,8.533h494.933c5.12,0,8.533-3.413,8.533-8.533v-36.693C511,448.707,500.76,432.493,485.4,423.96z     M344.6,348.867l3.413,15.36l-8.717,11.969c-0.556,0.455-1.071,1.006-1.523,1.684l-46.933,64.853l-23.009-51.982    c28.131-3.383,53.182-17.7,73.257-38.233C342.272,351.324,343.444,350.111,344.6,348.867z M109.933,109.933    c0-28.16,23.04-51.2,51.2-51.2c10.24,0,20.48,3.413,29.013,9.387c2.56,1.707,5.973,1.707,8.533,0.853s5.12-3.413,5.12-6.827    c2.56-26.453,24.747-46.08,51.2-46.08s48.64,19.627,51.2,46.08c0,2.56,1.707,5.12,4.267,6.827c2.56,0.853,5.973,0.853,8.533-0.853    c9.387-5.973,19.627-9.387,29.867-9.387c28.16,0,51.2,23.04,51.2,51.2c0,17.067-8.533,32.427-22.187,41.813    c-1.707,1.707-3.413,4.267-3.413,6.827V203.8H135.533v-45.227c0-2.56-0.853-5.12-3.413-6.827    C118.467,142.36,109.933,127,109.933,109.933z M135.533,220.867h238.933v8.533c0,37.209-12.764,70.274-31.929,95.407l-0.498,0.166    c-0.853,0.853-1.707,1.707-2.56,2.56c-4.293,5.724-8.824,10.943-13.558,15.649c-21.189,19.74-46.685,31.284-70.922,31.284    c-0.886,0-1.771-0.018-2.655-0.046c-14.42-0.496-29.211-5.013-43.215-12.839c-13.893-7.982-26.962-19.489-38.61-34.048    c-0.853-0.853-1.707-1.707-2.56-2.56l-0.498-0.166c-19.164-25.134-31.929-58.199-31.929-95.407V220.867z M242.169,390.751    l-23.009,51.982l-46.933-64.853c-0.272-0.272-0.572-0.541-0.884-0.806l-9.356-12.847l3.413-15.36    c1.155,1.244,2.327,2.456,3.509,3.649C188.985,373.05,214.037,387.368,242.169,390.751z M493.933,493.933H16.067v-28.16    c0-11.093,5.973-21.333,16.213-26.453c54.393-28.896,93.548-43.399,128.428-47.731l53.332,73.331    c1.34,2.011,3.215,2.959,5.608,3.277c0.404,0.08,0.811,0.136,1.218,0.136c0,0,0.853,0,0.853,0.853c2.56,0,5.973-2.56,6.827-5.12    l26.501-59.628l11.29,24.766l15.115,34.009c0.853,2.56,3.413,5.12,6.827,5.12h0.853c2.56,0,5.12-1.707,6.827-3.413l53.883-74.09    c34.757,5.245,74.615,19.737,127.877,47.636c10.24,5.973,16.213,16.213,16.213,27.307V493.933z" data-original="#000000" class="active-path" data-old_color="#ffffff" fill="#ffffff"/>
	</g>
</g></g> </svg>
