<?xml version="1.0" encoding="iso-8859-1"?>
<!-- Generator: Adobe Illustrator 19.0.0, SVG Export Plug-In . SVG Version: 6.00 Build 0)  -->
<svg version="1.1" id="Layer_1" xmlns="http://www.w3.org/2000/svg" xmlns:xlink="http://www.w3.org/1999/xlink" x="0px" y="0px"
	 viewBox="0 0 503.323 503.323" style="enable-background:new 0 0 503.323 503.323;" xml:space="preserve">
<g>
	<g>
		<path style="fill:#AEAEAF;" d="M158.57,331.053l-2.369-1.293l-8.678,34.712l69.424,95.458l34.712-78.102
			C215.159,381.828,182.209,361.278,158.57,331.053"/>
		<path style="fill:#AEAEAF;" d="M344.753,331.053c-23.639,30.225-56.589,50.775-93.089,50.775l34.712,78.102l69.424-95.458
			l-8.678-34.712L344.753,331.053z"/>
	</g>
	<g>
		<path style="fill:#E6E6E6;" d="M482.174,431.166c-47.833-25.175-93.227-44.336-135.055-49.334h-3.94l-56.806,78.102
			l-34.712-78.102l-34.712,78.102l-56.806-78.102h-3.94c-41.828,4.999-87.222,24.159-135.055,49.334
			C8.149,438.013,0,451.533,0,466.225v37.098h503.322v-37.098C503.322,451.533,495.174,438.013,482.174,431.166"/>
		<path style="fill:#E6E6E6;" d="M407.865,104.136c0-33.549-27.197-60.746-60.746-60.746c-13.06,0-25.123,4.157-35.024,11.169
			C308.997,23.916,283.119,0,251.661,0s-57.335,23.916-60.433,54.558c-9.902-7.012-21.964-11.169-35.024-11.169
			c-33.549,0-60.746,27.197-60.746,60.746c0,20.636,10.309,38.834,26.034,49.812v54.324h260.339v-54.324
			C397.555,142.969,407.865,124.772,407.865,104.136"/>
	</g>
	<path style="fill:#FDC794;" d="M121.492,225.627c0,76.678,58.281,156.203,130.169,156.203s130.169-79.525,130.169-156.203v-17.356
		H121.492V225.627z"/>
</g>
<g>
</g>
<g>
</g>
<g>
</g>
<g>
</g>
<g>
</g>
<g>
</g>
<g>
</g>
<g>
</g>
<g>
</g>
<g>
</g>
<g>
</g>
<g>
</g>
<g>
</g>
<g>
</g>
<g>
</g>
</svg>
