<?xml version="1.0"?>
<svg xmlns="http://www.w3.org/2000/svg" height="512px" viewBox="0 0 512 512" width="512px" class=""><g><path d="m61 196h390v301h-390zm0 0" fill="#5a5a5a" data-original="#5A5A5A" class=""/><path d="m256 196h195v301h-195zm0 0" fill="#444" data-original="#444" class=""/><path d="m211 242-60-30-60 30 37.5 67.5 82.5 52.5zm0 0" fill="#fed2a4" data-original="#FED2A4"/><path d="m211 362-120-120-30 67.5 30 52.5 49.6875 15zm0 0" fill="#ffbd86" data-original="#FFBD86"/><path d="m331 362h-120l37.5 67.5 82.5 52.5zm0 0" fill="#fed2a4" data-original="#FED2A4"/><path d="m331 482-120-120-30 67.5 30 52.5 49.6875 15zm0 0" fill="#ffbd86" data-original="#FFBD86"/><path d="m211 362h-120l37.5 67.5 82.5 52.5zm0 0" fill="#fed2a4" data-original="#FED2A4"/><path d="m211 482-120-120-30 67.5 30 52.5 49.6875 15zm0 0" fill="#ffbd86" data-original="#FFBD86"/><path d="m451 497-30 15h-330l-30-15 30-15h330zm0 0" fill="#6e6e6e" data-original="#6E6E6E"/><path d="m421 482 30 15-30 15h-165v-30zm0 0" fill="#5a5a5a" data-original="#5A5A5A" class=""/><path d="m91 512h-60v-270l33.75-30 26.25 30zm0 0" fill="#ff9f00" data-original="#FF9F00" class="active-path" style="fill:#FF9F00"/><path d="m481 512h-60v-270l33.75-30 26.25 30zm0 0" fill="#ff7816" data-original="#FF7816" class="" style="fill:#FF9F00" data-old_color="#FF7816"/><path d="m481 120v122h-450v-122l225-90zm0 0" fill="#ff9f00" data-original="#FF9F00" class="active-path" style="fill:#FF9F00"/><path d="m481 120v122h-225v-212zm0 0" fill="#ff7816" data-original="#FF7816" class="" style="fill:#FF9F00" data-old_color="#FF7816"/><path d="m181 150h30v62h-30zm0 0" fill="#5a5a5a" data-original="#5A5A5A" class=""/><path d="m241 150h30v62h-30zm0 0" fill="#5a5a5a" data-original="#5A5A5A" class=""/><path d="m301 150h30v62h-30zm0 0" fill="#444" data-original="#444" class=""/><path d="m256 150h15v62h-15zm0 0" fill="#444" data-original="#444" class=""/><path d="m512 90-22 56.101562-234-81.902343-234 85.800781-22-56.101562 256-93.898438zm0 0" fill="#5a5a5a" data-original="#5A5A5A" class=""/><path d="m512 90-22 56.101562-234-81.902343v-64.199219zm0 0" fill="#444" data-original="#444" class=""/></g> </svg>
