<?xml version="1.0"?>
<svg xmlns="http://www.w3.org/2000/svg" height="512px" viewBox="0 -45 473.99059 473" width="512px"><g><path d="m401.832031 83.402344h1.425781c19.320313-.019532 34.976563-15.679688 35-35v-12.90625c-.023437-19.320313-15.679687-34.980469-35-35h-1.425781c-19.320312.019531-34.976562 15.679687-35 35v12.90625c.023438 19.320312 15.679688 34.980468 35 35zm-21-47.90625c.015625-11.59375 9.410157-20.988282 21-21h1.425781c11.59375.011718 20.988282 9.40625 21 21v12.90625c-.011718 11.59375-9.40625 20.988281-21 21h-1.425781c-11.589843-.011719-20.984375-9.40625-21-21zm0 0" data-original="#000000" class="active-path" data-old_color="#000000" fill="#FFFFFF"/><path d="m437.167969 94.667969h-7.25c-2.390625 0-4.617188 1.222656-5.898438 3.238281l-7.9375 12.453125-9.554687-5.347656c-2.179688-1.21875-4.84375-1.183594-6.992188.089843l-8.382812 4.976563-6.996094-11.945313c-1.253906-2.144531-3.554688-3.464843-6.039062-3.464843h-8.175782c-10.347656 0-20.222656 4.355469-27.199218 11.996093-6.980469 7.644532-10.421876 17.871094-9.484376 28.179688v76.324219c0 1.488281.476563 2.9375 1.355469 4.136719l22.644531 30.890624 5.050782 113.042969c.421875 13.019531 11.125 23.34375 24.152344 23.300781h34.335937c13.007813.046876 23.699219-10.242187 24.152344-23.238281l5.046875-113.117187 22.5-30.910156c.875-1.199219 1.34375-2.640626 1.34375-4.121094v-76.308594c.9375-10.308594-2.503906-20.535156-9.480469-28.175781-6.976563-7.644531-16.847656-12-27.195313-12zm22.710937 39.132812c-.023437.234375-.035156.46875-.035156.707031v74.367188l-22.402344 30.769531c-.808594 1.113281-1.269531 2.4375-1.332031 3.808594l-5.148437 115.277344c-.179688 5.476562-4.679688 9.816406-10.160157 9.800781h-34.339843c-5.503907.011719-10.011719-4.363281-10.167969-9.863281l-5.140625-115.214844c-.0625-1.378906-.53125-2.710937-1.347656-3.828125l-22.546876-30.75v-74.367188c0-.238281-.011718-.472656-.035156-.707031-.652344-6.425781 1.449219-12.824219 5.777344-17.609375 4.328125-4.789062 10.484375-7.523437 16.941406-7.523437h4.160156l8.523438 14.5625c.949219 1.621093 2.507812 2.792969 4.324219 3.25 1.820312.460937 3.75.171875 5.351562-.804688l10.90625-6.476562 11.808594 6.601562c3.238281 1.808594 7.328125.78125 9.320313-2.347656l9.421874-14.789063h3.40625c6.457032 0 12.609376 2.734376 16.9375 7.523438 4.328126 4.789062 6.425782 11.1875 5.777344 17.609375zm0 0" data-original="#000000" class="active-path" data-old_color="#000000" fill="#FFFFFF"/><path d="m235.28125 83.402344h1.425781c19.320313-.019532 34.976563-15.679688 35-35v-12.90625c-.023437-19.320313-15.679687-34.980469-35-35h-1.425781c-19.320312.019531-34.976562 15.679687-35 35v12.90625c.023438 19.320312 15.679688 34.980468 35 35zm-21-47.90625c.015625-11.59375 9.410156-20.988282 21-21h1.425781c11.589844.011718 20.984375 9.40625 21 21v12.90625c-.015625 11.59375-9.410156 20.988281-21 21h-1.425781c-11.589844-.011719-20.984375-9.40625-21-21zm0 0" data-original="#000000" class="active-path" data-old_color="#000000" fill="#FFFFFF"/><path d="m270.613281 94.667969h-7.246093c-2.390626 0-4.617188 1.222656-5.902344 3.238281l-7.933594 12.453125-9.554688-5.347656c-2.179687-1.21875-4.847656-1.1875-6.992187.089843l-8.386719 4.976563-7-11.945313c-1.253906-2.144531-3.554687-3.464843-6.039062-3.464843h-8.175782c-10.351562 0-20.222656 4.355469-27.203124 11.996093-6.976563 7.644532-10.417969 17.871094-9.480469 28.179688v76.324219c0 1.488281.476562 2.9375 1.355469 4.136719l22.644531 30.890624 5.046875 113.042969c.425781 13.019531 11.128906 23.34375 24.15625 23.300781h34.339844c13.003906.046876 23.699218-10.242187 24.148437-23.238281l5.050781-113.113281 22.5-30.910156c.871094-1.199219 1.339844-2.640625 1.339844-4.121094v-76.308594c.941406-10.308594-2.5-20.53125-9.476562-28.175781-6.976563-7.644531-16.847657-11.996094-27.195313-12zm22.714844 39.132812c-.027344.234375-.039063.46875-.039063.707031v74.367188l-22.398437 30.769531c-.808594 1.113281-1.273437 2.4375-1.332031 3.808594l-5.148438 115.277344c-.179687 5.476562-4.683594 9.816406-10.160156 9.800781h-34.34375c-5.5.011719-10.007812-4.363281-10.164062-9.863281l-5.144532-115.214844c-.0625-1.382813-.53125-2.714844-1.347656-3.828125l-22.546875-30.75v-74.371094c0-.234375-.011719-.472656-.035156-.707031-.648438-6.421875 1.449219-12.820313 5.78125-17.609375 4.328125-4.789062 10.484375-7.519531 16.9375-7.519531h4.160156l8.527344 14.5625c.949219 1.621093 2.511719 2.792969 4.332031 3.25 1.820312.460937 3.75.167969 5.355469-.8125l10.898437-6.46875 11.808594 6.601562c3.238281 1.808594 7.328125.78125 9.320312-2.347656l9.421876-14.789063h3.40625c6.457031 0 12.609374 2.734376 16.9375 7.523438 4.328124 4.789062 6.425781 11.1875 5.777343 17.609375zm0 0" data-original="#000000" class="active-path" data-old_color="#000000" fill="#FFFFFF"/><path d="m68.730469 83.402344h1.421875c19.320312-.019532 34.980468-15.679688 35-35v-12.90625c-.019532-19.320313-15.679688-34.980469-35-35h-1.421875c-19.320313.019531-34.976563 15.679687-35 35v12.90625c.023437 19.320312 15.679687 34.980468 35 35zm-21-47.90625c.011719-11.59375 9.40625-20.988282 21-21h1.421875c11.59375.011718 20.988281 9.40625 21 21v12.90625c-.011719 11.59375-9.40625 20.988281-21 21h-1.421875c-11.59375-.011719-20.988281-9.40625-21-21zm0 0" data-original="#000000" class="active-path" data-old_color="#000000" fill="#FFFFFF"/><path d="m104.0625 94.667969h-7.25c-2.390625 0-4.613281 1.222656-5.898438 3.238281l-7.933593 12.453125-9.5625-5.347656c-2.179688-1.21875-4.84375-1.183594-6.988281.089843l-8.386719 4.980469-6.992188-11.949219c-1.257812-2.144531-3.554687-3.464843-6.042969-3.464843h-8.171874c-10.351563 0-20.222657 4.355469-27.203126 11.996093-6.976562 7.644532-10.417968 17.871094-9.480468 28.179688v76.324219c0 1.488281.472656 2.9375 1.351562 4.136719l22.648438 30.890624 5.046875 113.042969c.421875 13.019531 11.125 23.34375 24.152343 23.300781h34.339844c13.003906.050782 23.699219-10.242187 24.148438-23.238281l5.058594-113.117187 22.5-30.910156c.871093-1.199219 1.339843-2.640626 1.339843-4.121094v-76.308594c.9375-10.308594-2.5-20.53125-9.476562-28.175781-6.976563-7.640625-16.847657-11.996094-27.195313-12zm22.710938 39.132812c-.023438.234375-.035157.46875-.035157.707031v74.367188l-22.398437 30.769531c-.808594 1.113281-1.273438 2.4375-1.335938 3.808594l-5.144531 115.277344c-.183594 5.476562-4.683594 9.816406-10.164063 9.800781h-34.339843c-5.5.011719-10.011719-4.363281-10.164063-9.863281l-5.144531-115.214844c-.0625-1.378906-.53125-2.710937-1.347656-3.828125l-22.546875-30.75v-74.367188c0-.238281-.011719-.472656-.035156-.707031-.648438-6.425781 1.449218-12.824219 5.777343-17.609375 4.332031-4.789062 10.484375-7.523437 16.941407-7.523437h4.160156l8.527344 14.5625c.949218 1.621093 2.507812 2.792969 4.332031 3.253906 1.820312.457031 3.75.164063 5.355469-.8125l10.898437-6.46875 11.808594 6.597656c3.238281 1.8125 7.324219.78125 9.320312-2.347656l9.421875-14.789063h3.40625c6.457032 0 12.609375 2.734376 16.9375 7.523438s6.425782 11.1875 5.777344 17.609375zm0 0" data-original="#000000" class="active-path" data-old_color="#000000" fill="#FFFFFF"/></g> </svg>
