<?xml version="1.0"?>
<svg xmlns="http://www.w3.org/2000/svg" xmlns:xlink="http://www.w3.org/1999/xlink" version="1.1" id="Capa_1" x="0px" y="0px" viewBox="0 0 480 480" style="enable-background:new 0 0 480 480;" xml:space="preserve" width="512px" height="512px"><g><g>
	<g>
		<path d="M456.004,416c-0.001,0-0.003,0-0.004,0h-8v-32c0.001-2.518-1.185-4.889-3.199-6.398l-28.432-21.324l15.482-171.793    c1.068-14.149-3.879-28.093-13.625-38.406c-9.043-9.61-21.139-15.784-34.226-17.471V0H16v480h440c4.417,0.001,7.999-3.579,8-7.996    c0-0.001,0-0.003,0-0.004v-48C464.001,419.583,460.421,416.001,456.004,416z M432,388v28H320v-28l26.668-20h58.664L432,388z     M405.395,155.864c0.37,0.357,0.733,0.72,1.089,1.089c6.685,7.021,10.105,16.532,9.422,26.203L400.688,352h-49.375    l-15.211-168.734c-0.71-9.705,2.709-19.26,9.414-26.312C361.75,140.117,388.559,139.629,405.395,155.864z M288,423.996    c0,0.001,0,0.003,0,0.004v40H32V16h336v112.607c-12.02,1.583-23.227,6.945-32,15.313V128H64v16h271.918    c-0.716,0.692-1.466,1.346-2.144,2.078c-3.815,4.114-6.943,8.814-9.264,13.922H64v16h256.284    c-0.286,2.856-0.329,5.731-0.128,8.594l0.668,7.406H64v16h258.266l13.365,148.278l-28.432,21.324    c-2.015,1.51-3.2,3.881-3.199,6.398v32h-8C291.583,415.999,288.001,419.579,288,423.996z M448,464H304v-32h144V464z" data-original="#000000" class="active-path" data-old_color="#ffffff" fill="#ffffff"/>
	</g>
</g><g>
	<g>
		<rect x="152" y="48" width="96" height="16" data-original="#000000" class="active-path" data-old_color="#ffffff" fill="#ffffff"/>
	</g>
</g><g>
	<g>
		<rect x="200" y="240" width="96" height="16" data-original="#000000" class="active-path" data-old_color="#ffffff" fill="#ffffff"/>
	</g>
</g><g>
	<g>
		<rect x="64" y="96" width="272" height="16" data-original="#000000" class="active-path" data-old_color="#ffffff" fill="#ffffff"/>
	</g>
</g><g>
	<g>
		<path d="M285.659,298.347c-0.001-0.001-0.002-0.002-0.003-0.003l-24-24c-3.122-3.124-8.186-3.125-11.309-0.003    c-0.001,0.001-0.002,0.002-0.003,0.003l-20.34,20.34c-35.94-16.703-78.616-1.108-95.319,34.832    c-8.913,19.177-8.913,41.31,0,60.487l-20.341,20.341c-3.124,3.122-3.125,8.186-0.003,11.309c0.001,0.001,0.002,0.002,0.003,0.003    l24,24c3.122,3.124,8.186,3.125,11.31,0.003c0.001-0.001,0.002-0.002,0.003-0.003l20.333-20.333    c35.953,16.697,78.635,1.088,95.332-34.865c8.904-19.172,8.904-41.295,0-60.467l20.334-20.334    C288.78,306.534,288.781,301.47,285.659,298.347z M199.4,304c6.224-0.034,12.41,0.976,18.3,2.988l-70.725,70.725    c-1.936-5.706-2.94-11.687-2.975-17.712C143.834,329.238,168.637,304.166,199.4,304z M200.317,416    c-6.14,0.017-12.242-0.978-18.058-2.946l70.795-70.795c1.939,5.714,2.934,11.707,2.946,17.741    C256.088,390.84,231.157,415.912,200.317,416z M144,428.688L131.313,416L256,291.312L268.688,304L144,428.688z" data-original="#000000" class="active-path" data-old_color="#ffffff" fill="#ffffff"/>
	</g>
</g></g> </svg>
