<?xml version="1.0"?>
<svg xmlns="http://www.w3.org/2000/svg" xmlns:xlink="http://www.w3.org/1999/xlink" version="1.1" id="Capa_1" x="0px" y="0px" viewBox="0 0 60 60" style="enable-background:new 0 0 60 60;" xml:space="preserve" width="512px" height="512px"><g><path d="M53,41V29H31V19h7V3H22v16h7v10H7v12H0v16h16V41H9V31h20v10h-7v16h16V41h-7V31h20v10h-7v16h16V41H53z M24,5h12v12H24V5z   M14,55H2V43h12V55z M36,55H24V43h12V55z M58,55H46V43h12V55z" data-original="#000000" class="active-path" data-old_color="#ffffff" fill="#ffffff"/></g> </svg>
