<?xml version="1.0"?>
<svg xmlns="http://www.w3.org/2000/svg" xmlns:xlink="http://www.w3.org/1999/xlink" version="1.1" id="Layer_1" x="0px" y="0px" viewBox="0 0 512 512" style="enable-background:new 0 0 512 512;" xml:space="preserve" width="512px" height="512px"><g><g>
	<g>
		<path d="M256,0C114.615,0,0,114.615,0,256s114.615,256,256,256s256-114.615,256-256S397.385,0,256,0z M256,494.933    C124.041,494.933,17.067,387.959,17.067,256S124.041,17.067,256,17.067S494.933,124.041,494.933,256S387.959,494.933,256,494.933z    " data-original="#000000" class="active-path" data-old_color="#ffffff" fill="#ffffff"/>
	</g>
</g><g>
	<g>
		<path d="M324.267,128c-26.514-1.09-51.927,10.664-68.267,31.573c-16.339-20.909-41.753-32.663-68.267-31.573    c-42.667,0-76.8,26.027-76.8,58.027v161.451c0.01,6.777,4.029,12.905,10.24,15.616c2.151,0.949,4.475,1.443,6.827,1.451    c4.312-0.015,8.458-1.661,11.605-4.608c13.408-11.397,30.536-17.471,48.128-17.067c17.591-0.396,34.716,5.677,48.128,17.067    c4.951,4.654,12.19,5.927,18.432,3.243c0.588-0.308,1.158-0.65,1.707-1.024c0.549,0.374,1.118,0.716,1.707,1.024    c2.151,0.949,4.475,1.443,6.827,1.451c4.312-0.015,8.458-1.661,11.605-4.608c13.408-11.397,30.536-17.471,48.128-17.067    c17.591-0.396,34.716,5.677,48.128,17.067c6.911,6.409,17.709,6.003,24.119-0.908c2.934-3.164,4.561-7.321,4.553-11.636V186.027    C401.067,154.027,366.933,128,324.267,128z M247.467,347.392c-16.553-14.322-37.851-21.958-59.733-21.419    c-21.899-0.549-43.21,7.122-59.733,21.504V186.027c0-22.613,26.795-40.96,59.733-40.96s59.733,18.347,59.733,40.96V347.392z     M384,347.392c-16.553-14.322-37.851-21.958-59.733-21.419c-21.899-0.549-43.21,7.122-59.733,21.504V186.027    c0-22.613,26.795-40.96,59.733-40.96c32.939,0,59.733,18.347,59.733,40.96V347.392z" data-original="#000000" class="active-path" data-old_color="#ffffff" fill="#ffffff"/>
	</g>
</g></g> </svg>
