<?xml version="1.0"?>
<svg xmlns="http://www.w3.org/2000/svg" height="512px" viewBox="0 0 511 512" width="512px" class=""><g><path d="m31.445312 178.433594v333.566406h449.851563v-333.566406l30.945313-78.921875-255.871094-99.511719-255.871094 99.511719zm299.902344 282.371094-68.765625-68.765626h68.765625zm-119.960937 0-68.765625-68.765626h68.765625zm-89.972657-167.519532 68.765626 68.761719h-68.765626zm21.207032-21.207031h68.765625v68.765625zm-21.207032 141.167969 68.765626 68.761718h-68.765626zm119.960938 0 68.765625 68.761718h-68.765625zm0-51.195313v-89.972656h149.953125v209.933594h-29.992187v-119.960938zm-179.941406-119.960937v-69.40625l194.9375-76.4375 194.9375 76.4375v69.40625zm0 29.988281h29.992187v209.933594h-29.992187zm359.882812 209.933594v-209.933594h29.992188v209.933594zm-164.945312-449.835938 216.972656 84.382813-11.0625 28.214844-205.910156-80.738282-205.910156 80.738282-11.0625-28.214844zm0 0" data-original="#000000" class="active-path" data-old_color="#ffffff" fill="#ffffff"/><path d="m181.394531 151.117188h29.992188v59.980468h-29.992188zm0 0" data-original="#000000" class="active-path" data-old_color="#ffffff" fill="#ffffff"/><path d="m241.375 151.117188h29.992188v59.980468h-29.992188zm0 0" data-original="#000000" class="active-path" data-old_color="#ffffff" fill="#ffffff"/><path d="m301.355469 151.117188h29.992187v59.980468h-29.992187zm0 0" data-original="#000000" class="active-path" data-old_color="#ffffff" fill="#ffffff"/></g> </svg>
