<?xml version="1.0"?>
<svg xmlns="http://www.w3.org/2000/svg" height="512px" viewBox="0 0 512 512" width="512px"><g><path d="m491.894531 512h-471.789062c-11.085938 0-20.105469-9.019531-20.105469-20.097656v-471.796875c0-11.085938 9.019531-20.105469 20.105469-20.105469h471.796875c11.078125 0 20.097656 9.019531 20.097656 20.105469v471.796875c0 11.078125-9.019531 20.097656-20.105469 20.097656zm-471.789062-494.933594c-1.671875 0-3.039063 1.367188-3.039063 3.039063v471.796875c0 1.664062 1.367188 3.03125 3.039063 3.03125h471.796875c1.664062 0 3.03125-1.367188 3.03125-3.03125v-471.796875c0-1.671875-1.367188-3.039063-3.039063-3.039063zm0 0" data-original="#000000" class="active-path" data-old_color="#ffffff" fill="#ffffff"/><path d="m460.800781 196.265625h-409.601562c-4.710938 0-8.53125-3.820313-8.53125-8.53125v-136.535156c0-4.710938 3.820312-8.53125 8.53125-8.53125h409.601562c4.710938 0 8.53125 3.820312 8.53125 8.53125v136.535156c0 4.710937-3.820312 8.53125-8.53125 8.53125zm-401.066406-17.066406h392.53125v-119.464844h-392.53125zm0 0" data-original="#000000" class="active-path" data-old_color="#ffffff" fill="#ffffff"/><path d="m142.933594 341.332031h-81.066406c-10.589844 0-19.199219-8.609375-19.199219-19.199219v-81.066406c0-10.589844 8.609375-19.199218 19.199219-19.199218h81.074218c10.582032 0 19.199219 8.609374 19.199219 19.199218v81.074219c-.007813 10.582031-8.617187 19.191406-19.207031 19.191406zm-81.066406-102.398437c-1.179688 0-2.132813.957031-2.132813 2.132812v81.074219c0 1.171875.953125 2.125 2.132813 2.125h81.074218c1.179688 0 2.132813-.953125 2.132813-2.132813v-81.066406c0-1.175781-.953125-2.132812-2.132813-2.132812zm0 0" data-original="#000000" class="active-path" data-old_color="#ffffff" fill="#ffffff"/><path d="m288 341.332031h-81.066406c-10.582032 0-19.199219-8.609375-19.199219-19.199219v-81.066406c0-10.582031 8.609375-19.199218 19.199219-19.199218h81.074218c10.582032 0 19.199219 8.609374 19.199219 19.199218v81.074219c-.007812 10.582031-8.617187 19.191406-19.207031 19.191406zm-81.066406-102.398437c-1.179688 0-2.132813.957031-2.132813 2.132812v81.074219c0 1.179687.953125 2.132813 2.132813 2.132813h81.074218c1.179688 0 2.132813-.953126 2.132813-2.132813v-81.074219c0-1.175781-.953125-2.132812-2.132813-2.132812zm0 0" data-original="#000000" class="active-path" data-old_color="#ffffff" fill="#ffffff"/><path d="m142.933594 469.332031h-81.066406c-10.589844 0-19.199219-8.609375-19.199219-19.199219v-72.53125c0-10.589843 8.609375-19.203124 19.199219-19.203124h81.074218c10.582032 0 19.199219 8.613281 19.199219 19.203124v72.539063c-.007813 10.582031-8.617187 19.191406-19.207031 19.191406zm-81.066406-93.867187c-1.179688 0-2.132813.957031-2.132813 2.136718v72.539063c0 1.171875.953125 2.125 2.132813 2.125h81.074218c1.179688 0 2.132813-.953125 2.132813-2.132813v-72.53125c0-1.179687-.953125-2.136718-2.132813-2.136718zm0 0" data-original="#000000" class="active-path" data-old_color="#ffffff" fill="#ffffff"/><path d="m288 469.332031h-81.066406c-10.582032 0-19.199219-8.609375-19.199219-19.199219v-72.53125c0-10.582031 8.609375-19.203124 19.199219-19.203124h81.074218c10.582032 0 19.199219 8.613281 19.199219 19.203124v72.539063c-.007812 10.582031-8.617187 19.191406-19.207031 19.191406zm-81.066406-93.867187c-1.179688 0-2.132813.957031-2.132813 2.136718v72.539063c0 1.179687.953125 2.132813 2.132813 2.132813h81.074218c1.179688 0 2.132813-.953126 2.132813-2.132813v-72.539063c0-1.179687-.953125-2.136718-2.132813-2.136718zm0 0" data-original="#000000" class="active-path" data-old_color="#ffffff" fill="#ffffff"/><path d="m450.132812 469.332031h-98.132812c-10.582031 0-19.199219-8.609375-19.199219-19.199219v-209.066406c0-10.582031 8.609375-19.199218 19.199219-19.199218h98.132812c10.582032 0 19.199219 8.609374 19.199219 19.199218v209.066406c0 10.589844-8.609375 19.199219-19.199219 19.199219zm-98.132812-230.398437c-1.175781 0-2.132812.957031-2.132812 2.132812v209.066406c0 1.179688.957031 2.132813 2.132812 2.132813h98.132812c1.179688 0 2.132813-.953125 2.132813-2.132813v-209.066406c0-1.175781-.953125-2.132812-2.132813-2.132812zm0 0" data-original="#000000" class="active-path" data-old_color="#ffffff" fill="#ffffff"/><path d="m258.730469 153.601562h-22.527344c-7.902344 0-14.335937-6.4375-14.335937-14.335937v-39.597656c0-7.902344 6.433593-14.335938 14.335937-14.335938h22.519531c7.910156 0 14.335938 6.433594 14.335938 14.335938v39.597656c.007812 7.898437-6.425782 14.335937-14.328125 14.335937zm-19.796875-17.066406h17.066406v-34.136718h-17.066406zm0 0" data-original="#000000" class="active-path" data-old_color="#ffffff" fill="#ffffff"/><path d="m344.0625 153.601562h-22.527344c-7.902344 0-14.335937-6.4375-14.335937-14.335937v-39.597656c0-7.902344 6.433593-14.335938 14.335937-14.335938h22.519532c7.910156 0 14.335937 6.433594 14.335937 14.335938v39.597656c.007813 7.898437-6.425781 14.335937-14.328125 14.335937zm-19.796875-17.066406h17.066406v-34.136718h-17.066406zm0 0" data-original="#000000" class="active-path" data-old_color="#ffffff" fill="#ffffff"/><path d="m412.332031 153.601562h-22.53125c-7.898437 0-14.335937-6.4375-14.335937-14.335937v-39.597656c0-7.902344 6.4375-14.335938 14.335937-14.335938h22.519531c7.914063 0 14.335938 6.433594 14.335938 14.335938v39.597656c.011719 7.898437-6.421875 14.335937-14.324219 14.335937zm-19.796875-17.066406h17.066406v-34.136718h-17.066406zm0 0" data-original="#000000" class="active-path" data-old_color="#ffffff" fill="#ffffff"/><path d="m426.667969 341.332031h-51.203125c-4.707032 0-8.53125-3.820312-8.53125-8.53125 0-4.710937 3.824218-8.535156 8.53125-8.535156h51.203125c4.710937 0 8.53125 3.824219 8.53125 8.535156 0 4.710938-3.820313 8.53125-8.53125 8.53125zm0 0" data-original="#000000" class="active-path" data-old_color="#ffffff" fill="#ffffff"/><path d="m119.464844 290.132812h-34.132813c-4.710937 0-8.53125-3.824218-8.53125-8.53125 0-4.710937 3.820313-8.535156 8.53125-8.535156h34.132813c4.710937 0 8.535156 3.824219 8.535156 8.535156 0 4.707032-3.824219 8.53125-8.535156 8.53125zm0 0" data-original="#000000" class="active-path" data-old_color="#ffffff" fill="#ffffff"/><path d="m119.464844 426.667969h-34.132813c-4.710937 0-8.53125-3.824219-8.53125-8.535157 0-4.710937 3.820313-8.53125 8.53125-8.53125h34.132813c4.710937 0 8.535156 3.820313 8.535156 8.53125 0 4.710938-3.824219 8.535157-8.535156 8.535157zm0 0" data-original="#000000" class="active-path" data-old_color="#ffffff" fill="#ffffff"/><path d="m426.667969 375.464844h-51.203125c-4.707032 0-8.53125-3.820313-8.53125-8.53125 0-4.710938 3.824218-8.535156 8.53125-8.535156h51.203125c4.710937 0 8.53125 3.824218 8.53125 8.535156 0 4.710937-3.820313 8.53125-8.53125 8.53125zm0 0" data-original="#000000" class="active-path" data-old_color="#ffffff" fill="#ffffff"/><path d="m102.398438 307.199219c-4.707032 0-8.53125-3.820313-8.53125-8.53125v-34.132813c0-4.710937 3.824218-8.535156 8.53125-8.535156 4.710937 0 8.535156 3.824219 8.535156 8.535156v34.132813c0 4.710937-3.824219 8.53125-8.535156 8.53125zm0 0" data-original="#000000" class="active-path" data-old_color="#ffffff" fill="#ffffff"/><path d="m230.398438 307.199219c-2.183594 0-4.367188-.835938-6.03125-2.5-3.335938-3.335938-3.335938-8.730469 0-12.066407l34.132812-34.132812c3.328125-3.335938 8.738281-3.335938 12.066406 0 3.335938 3.335938 3.335938 8.730469 0 12.066406l-34.132812 34.132813c-1.664063 1.664062-3.847656 2.5-6.035156 2.5zm0 0" data-original="#000000" class="active-path" data-old_color="#ffffff" fill="#ffffff"/><path d="m264.535156 307.199219c-2.1875 0-4.371094-.835938-6.035156-2.5l-34.132812-34.132813c-3.335938-3.335937-3.335938-8.730468 0-12.066406 3.328124-3.335938 8.738281-3.335938 12.066406 0l34.132812 34.132812c3.335938 3.335938 3.335938 8.730469 0 12.066407-1.664062 1.664062-3.847656 2.5-6.03125 2.5zm0 0" data-original="#000000" class="active-path" data-old_color="#ffffff" fill="#ffffff"/><path d="m238.925781 435.199219c-1.621093 0-3.269531-.460938-4.726562-1.433594-3.917969-2.609375-4.984375-7.910156-2.367188-11.835937l17.066407-25.609376c2.613281-3.921874 7.902343-4.980468 11.835937-2.363281 3.917969 2.613281 4.984375 7.910157 2.367187 11.835938l-17.070312 25.609375c-1.644531 2.464844-4.351562 3.796875-7.105469 3.796875zm0 0" data-original="#000000" class="active-path" data-old_color="#ffffff" fill="#ffffff"/><path d="m290.132812 162.132812c-4.710937 0-8.53125-3.824218-8.53125-8.53125v-8.535156c0-4.710937 3.820313-8.53125 8.53125-8.53125 4.710938 0 8.535157 3.820313 8.535157 8.53125v8.535156c0 4.707032-3.824219 8.53125-8.535157 8.53125zm0 0" data-original="#000000" class="active-path" data-old_color="#ffffff" fill="#ffffff"/></g> </svg>
