<?xml version="1.0"?>
<svg xmlns="http://www.w3.org/2000/svg" height="512px" viewBox="0 0 512 512" width="512px"><g><path d="m491.554688 512h-471.109376c-11.273437 0-20.445312-9.171875-20.445312-20.4375v-471.125c0-11.265625 9.171875-20.4375 20.445312-20.4375h471.117188c11.265625 0 20.4375 9.171875 20.4375 20.445312v471.117188c0 11.265625-9.171875 20.4375-20.445312 20.4375zm-471.109376-494.644531c-1.699218 0-3.089843 1.390625-3.089843 3.082031v471.117188c0 1.699218 1.390625 3.089843 3.089843 3.089843h471.117188c1.691406 0 3.082031-1.390625 3.082031-3.082031v-471.117188c0-1.699218-1.390625-3.089843-3.089843-3.089843zm0 0" data-original="#000000" class="active-path" data-old_color="#ffffff" fill="#ffffff"/><path d="m173.558594 156.203125h-52.066406c-4.789063 0-8.679688-3.886719-8.679688-8.675781 0-4.792969 3.890625-8.679688 8.679688-8.679688h52.066406c4.789062 0 8.679687 3.886719 8.679687 8.679688 0 4.789062-3.890625 8.675781-8.679687 8.675781zm0 0" data-original="#000000" class="active-path" data-old_color="#ffffff" fill="#ffffff"/><path d="m390.507812 156.203125h-52.066406c-4.789062 0-8.679687-3.886719-8.679687-8.675781 0-4.792969 3.890625-8.679688 8.679687-8.679688h52.066406c4.789063 0 8.679688 3.886719 8.679688 8.679688 0 4.789062-3.890625 8.675781-8.679688 8.675781zm0 0" data-original="#000000" class="active-path" data-old_color="#ffffff" fill="#ffffff"/><path d="m364.472656 182.238281c-4.789062 0-8.675781-3.890625-8.675781-8.679687v-52.066406c0-4.789063 3.886719-8.679688 8.675781-8.679688 4.792969 0 8.679688 3.890625 8.679688 8.679688v52.066406c0 4.789062-3.886719 8.679687-8.679688 8.679687zm0 0" data-original="#000000" class="active-path" data-old_color="#ffffff" fill="#ffffff"/><path d="m390.507812 355.796875h-52.066406c-4.789062 0-8.679687-3.886719-8.679687-8.679687 0-4.789063 3.890625-8.675782 8.679687-8.675782h52.066406c4.789063 0 8.679688 3.886719 8.679688 8.675782 0 4.792968-3.890625 8.679687-8.679688 8.679687zm0 0" data-original="#000000" class="active-path" data-old_color="#ffffff" fill="#ffffff"/><path d="m390.507812 390.507812h-52.066406c-4.789062 0-8.679687-3.886718-8.679687-8.675781 0-4.792969 3.890625-8.679687 8.679687-8.679687h52.066406c4.789063 0 8.679688 3.886718 8.679688 8.679687 0 4.789063-3.890625 8.675781-8.679688 8.675781zm0 0" data-original="#000000" class="active-path" data-old_color="#ffffff" fill="#ffffff"/><path d="m234.304688 242.984375h-173.558594c-4.789063 0-8.679688-3.890625-8.679688-8.679687v-173.558594c0-4.789063 3.890625-8.679688 8.679688-8.679688h173.558594c4.789062 0 8.679687 3.890625 8.679687 8.679688v173.558594c0 4.789062-3.890625 8.679687-8.679687 8.679687zm-164.882813-17.355469h156.207031v-156.207031h-156.207031zm0 0" data-original="#000000" class="active-path" data-old_color="#ffffff" fill="#ffffff"/><path d="m234.304688 459.933594h-173.558594c-4.789063 0-8.679688-3.890625-8.679688-8.679688v-173.558594c0-4.789062 3.890625-8.679687 8.679688-8.679687h173.558594c4.789062 0 8.679687 3.890625 8.679687 8.679687v173.558594c0 4.789063-3.890625 8.679688-8.679687 8.679688zm-164.882813-17.355469h156.207031v-156.207031h-156.207031zm0 0" data-original="#000000" class="active-path" data-old_color="#ffffff" fill="#ffffff"/><path d="m451.253906 242.984375h-173.558594c-4.789062 0-8.679687-3.890625-8.679687-8.679687v-173.558594c0-4.789063 3.890625-8.679688 8.679687-8.679688h173.558594c4.789063 0 8.679688 3.890625 8.679688 8.679688v173.558594c0 4.789062-3.890625 8.679687-8.679688 8.679687zm-164.882812-17.355469h156.207031v-156.207031h-156.207031zm0 0" data-original="#000000" class="active-path" data-old_color="#ffffff" fill="#ffffff"/><path d="m451.253906 459.933594h-173.558594c-4.789062 0-8.679687-3.890625-8.679687-8.679688v-173.558594c0-4.789062 3.890625-8.679687 8.679687-8.679687h173.558594c4.789063 0 8.679688 3.890625 8.679688 8.679687v173.558594c0 4.789063-3.890625 8.679688-8.679688 8.679688zm-164.882812-17.355469h156.207031v-156.207031h-156.207031zm0 0" data-original="#000000" class="active-path" data-old_color="#ffffff" fill="#ffffff"/><path d="m165.929688 391.558594c-2.21875 0-4.441407-.851563-6.132813-2.542969l-36.820313-36.8125c-3.394531-3.390625-3.394531-8.875 0-12.269531 3.382813-3.394532 8.875-3.394532 12.269532 0l36.820312 36.8125c3.394532 3.390625 3.394532 8.875 0 12.269531-1.691406 1.691406-3.914062 2.542969-6.136718 2.542969zm0 0" data-original="#000000" class="active-path" data-old_color="#ffffff" fill="#ffffff"/><path d="m129.121094 391.558594c-2.222656 0-4.445313-.851563-6.136719-2.542969-3.394531-3.394531-3.394531-8.878906 0-12.269531l36.820313-36.8125c3.394531-3.394532 8.886718-3.394532 12.269531 0 3.394531 3.394531 3.394531 8.878906 0 12.269531l-36.820313 36.8125c-1.699218 1.691406-3.914062 2.542969-6.132812 2.542969zm0 0" data-original="#000000" class="active-path" data-old_color="#ffffff" fill="#ffffff"/></g> </svg>
