<?xml version="1.0"?>
<svg xmlns="http://www.w3.org/2000/svg" height="512px" viewBox="0 0 496 496" width="512px"><g><path d="m360 224c4.414062 0 8 3.59375 8 8h16c0-10.414062-6.710938-19.214844-16-22.527344v-17.472656h-16v17.472656c-9.289062 3.3125-16 12.113282-16 22.527344 0 13.230469 10.769531 24 24 24 4.414062 0 8 3.585938 8 8s-3.585938 8-8 8-8-3.585938-8-8h-16c0 10.414062 6.710938 19.214844 16 22.527344v17.472656h16v-17.472656c9.289062-3.3125 16-12.113282 16-22.527344 0-13.230469-10.769531-24-24-24-4.414062 0-8-3.59375-8-8s3.585938-8 8-8zm0 0" data-original="#000000" class="active-path" data-old_color="#ffffff" fill="#ffffff"/><path d="m496 248c0-12.792969-6.160156-24.65625-16.207031-32.105469 4.984375-11.46875 4.390625-24.824219-2.007813-35.894531-6.402344-11.078125-17.664062-18.273438-30.089844-19.695312-1.429687-12.425782-8.617187-23.6875-19.695312-30.089844-11.078125-6.382813-24.425781-6.984375-35.894531-2.007813-7.449219-10.046875-19.304688-16.207031-32.105469-16.207031-2.726562 0-5.390625.335938-8 .871094v-24.871094c0-22.054688-17.945312-40-40-40h-64v-16h-32.808594c-3.710937-18.230469-19.871094-32-39.191406-32s-35.480469 13.769531-39.191406 32h-32.808594v16h-64c-22.054688 0-40 17.945312-40 40v368c0 22.054688 17.945312 40 40 40h272c22.054688 0 40-17.945312 40-40v-72.871094c2.609375.535156 5.273438.871094 8 .871094 12.800781 0 24.65625-6.160156 32.105469-16.207031 11.46875 5 24.824219 4.382812 35.894531-2.007813 11.078125-6.402344 18.265625-17.65625 19.695312-30.089844 12.433594-1.429687 23.6875-8.617187 30.089844-19.695312 6.398438-11.078125 6.992188-24.433594 2.007813-35.894531 10.046875-7.449219 16.207031-19.304688 16.207031-32.105469zm-184-184c13.230469 0 24 10.769531 24 24v32.128906c-3.039062 2.296875-5.800781 4.976563-8.105469 8.078125-2.550781-1.101562-5.207031-1.894531-7.894531-2.445312v-45.761719h-72v-16zm-71.792969 151.894531c-3.160156 2.34375-5.886719 5.167969-8.207031 8.28125v-.175781h-8v-56h-16v56h-16v-80h-16v80h-16v-96h-16v96h-16v-48h-16v48h-16v-32h-16v32h-16v16h160.871094c-.535156 2.609375-.871094 5.273438-.871094 8s.335938 5.390625.871094 8h-160.871094v112h224v-4.863281c1.273438.953125 2.601562 1.839843 4 2.648437 3.785156 2.183594 7.847656 3.640625 12 4.480469v77.734375h-192v-64h-64v-288h56v16h144v-16h56v29.734375c-4.152344.839844-8.207031 2.296875-12 4.480469-11.078125 6.402344-18.265625 17.664062-19.695312 30.089844-12.425782 1.421874-23.6875 8.617187-30.089844 19.695312-6.390625 11.078125-6.992188 24.425781-2.007813 35.894531zm2.007813 100.105469c6.34375 10.984375 17.472656 18.128906 29.785156 19.640625v16.359375h-192v-80h152.128906c2.296875 3.039062 4.976563 5.800781 8.078125 8.105469-4.984375 11.460937-4.382812 24.816406 2.007813 35.894531zm-146.214844 120.6875-36.6875-36.6875h36.6875zm24-388.6875h32v-8c0-13.230469 10.769531-24 24-24s24 10.769531 24 24v8h32v48h-112zm216 408c0 13.230469-10.769531 24-24 24h-272c-13.230469 0-24-10.769531-24-24v-368c0-13.230469 10.769531-24 24-24h64v16h-72v315.3125l68.6875 68.6875h219.3125v-93.753906c2.695312-.550782 5.34375-1.34375 7.894531-2.453125 2.304688 3.101562 5.066407 5.78125 8.105469 8.078125zm129.726562-186.105469-9.03125 4.015625 5.816407 7.992188c5.578125 7.683594 6.136719 17.921875 1.417969 26.097656-4.722657 8.175781-13.859376 12.816406-23.3125 11.832031l-9.816407-1.03125 1.03125 9.816407c.984375 9.445312-3.65625 18.589843-11.832031 23.3125-8.167969 4.726562-18.40625 4.160156-26.097656-1.417969l-7.992188-5.816407-4.015625 9.03125c-3.863281 8.671876-12.453125 14.273438-21.894531 14.273438s-18.03125-5.601562-21.894531-14.273438l-4.015625-9.03125-7.992188 5.816407c-7.683594 5.566406-17.90625 6.144531-26.097656 1.417969-8.167969-4.722657-12.816406-13.867188-11.832031-23.3125l1.03125-9.816407-9.816407 1.03125c-9.445312.953125-18.589843-3.664062-23.3125-11.832031-4.71875-8.167969-4.167968-18.414062 1.417969-26.097656l5.816407-7.992188-9.03125-4.015625c-8.671876-3.863281-14.273438-12.453125-14.273438-21.894531s5.601562-18.03125 14.273438-21.894531l9.03125-4.015625-5.816407-7.992188c-5.578125-7.683594-6.136719-17.921875-1.417969-26.097656 4.730469-8.175781 13.976563-12.824219 23.304688-11.824219l9.824219 1.03125-1.03125-9.824219c-.984375-9.445312 3.65625-18.597656 11.832031-23.3125 8.167969-4.710937 18.425781-4.160156 26.097656 1.417969l7.992188 5.808594 4.015625-9.023437c3.863281-8.671876 12.453125-14.273438 21.894531-14.273438s18.03125 5.601562 21.894531 14.273438l4.015625 9.023437 7.992188-5.808594c7.671875-5.578125 17.929687-6.128906 26.097656-1.417969 8.167969 4.714844 12.816406 13.867188 11.832031 23.3125l-1.03125 9.824219 9.824219-1.03125c9.375-1 18.574219 3.640625 23.304688 11.824219 4.71875 8.167969 4.167968 18.414062-1.417969 26.097656l-5.816407 7.992188 9.03125 4.015625c8.671876 3.863281 14.273438 12.453125 14.273438 21.894531s-5.601562 18.03125-14.273438 21.894531zm0 0" data-original="#000000" class="active-path" data-old_color="#ffffff" fill="#ffffff"/><path d="m360 160c-48.519531 0-88 39.480469-88 88s39.480469 88 88 88 88-39.480469 88-88-39.480469-88-88-88zm0 160c-39.703125 0-72-32.296875-72-72 0-39.695312 32.296875-72 72-72s72 32.304688 72 72c0 39.703125-32.296875 72-72 72zm0 0" data-original="#000000" class="active-path" data-old_color="#ffffff" fill="#ffffff"/><path d="m136 64h16v16h-16zm0 0" data-original="#000000" class="active-path" data-old_color="#ffffff" fill="#ffffff"/><path d="m200 64h16v16h-16zm0 0" data-original="#000000" class="active-path" data-old_color="#ffffff" fill="#ffffff"/><path d="m128 416h128v16h-128zm0 0" data-original="#000000" class="active-path" data-old_color="#ffffff" fill="#ffffff"/><path d="m272 416h16v16h-16zm0 0" data-original="#000000" class="active-path" data-old_color="#ffffff" fill="#ffffff"/><path d="m128 384h160v16h-160zm0 0" data-original="#000000" class="active-path" data-old_color="#ffffff" fill="#ffffff"/></g> </svg>
