<?xml version="1.0"?>
<svg xmlns="http://www.w3.org/2000/svg" xmlns:xlink="http://www.w3.org/1999/xlink" version="1.1" id="Capa_1" x="0px" y="0px" viewBox="0 0 496 496" style="enable-background:new 0 0 496 496;" xml:space="preserve" width="512px" height="512px" class=""><g><g>
	<g>
		<g>
			<path d="M496,40h-72V0H56C25.128,0,0,25.128,0,56v384c0,30.872,25.128,56,56,56h368v-16c-22.056,0-40-17.944-40-40     c0-22.056,17.944-40,40-40v-8v-8V152h72v-18.808L466.24,96L496,58.808V40z M16,56c0-22.056,17.944-40,40-40h40v368H56     c-15.664,0-29.824,6.48-40,16.888V56z M368,440c0,15.656,6.456,29.824,16.84,40H56c-22.056,0-40-17.944-40-40     c0-22.056,17.944-40,40-40h328.84C374.456,410.168,368,424.344,368,440z M445.76,96l32,40H424v-16.008h-16V384H112V16h296v88h16     V56h53.76L445.76,96z" data-original="#000000" class="active-path" data-old_color="#ffffff" fill="#ffffff"/>
			<path d="M313.504,193.128c0.264-9.008-2.472-17.888-7.936-25.144c9.424-12.584,10.744-29.96,2.64-43.992     c-8.104-14.032-23.792-21.64-39.432-19.704C262.6,89.84,248.208,80,232,80s-30.6,9.84-36.784,24.296     c-15.6-1.928-31.328,5.672-39.432,19.704s-6.784,31.416,2.648,44c-9.432,12.584-10.752,29.968-2.648,44     c8.096,14.032,23.816,21.64,39.432,19.704C201.4,246.152,215.792,256,232,256c0.008,0,0.016,0,0.024,0     c-5.152,12.32-8.024,25.832-8.024,40v40h40c57.344,0,104-46.656,104-104v-40h-40C323.064,192,318.256,192.464,313.504,193.128z      M232,240c-11.4,0-21.28-8.096-23.52-19.248l-1.784-8.92l-8.624,2.912c-10.76,3.632-22.736-0.864-28.432-10.744     c-5.696-9.856-3.632-22.48,4.912-29.992l6.832-6.008l-6.824-6.008c-8.544-7.512-10.608-20.136-4.912-29.992     s17.648-14.368,28.432-10.744l8.624,2.912l1.784-8.92C210.72,104.096,220.6,96,232,96c11.4,0,21.28,8.096,23.512,19.248     l1.784,8.92l8.624-2.912c10.768-3.616,22.736,0.864,28.432,10.744c5.696,9.856,3.632,22.48-4.912,29.992L282.616,168l6.832,6.008     c6.488,5.704,9.304,14.368,7.624,22.688c-22.656,7.072-42,21.704-55.08,40.92C238.848,239.072,235.488,240,232,240z M296,214.112     v38.576l-24,24v-48.52C279.136,222.272,287.248,217.544,296,214.112z M240,296c0-18.768,5.952-36.136,16-50.44v47.128l-16,16V296     z M264,320h-12.688l16-16h47.128C300.136,314.048,282.768,320,264,320z M331.832,288h-48.52l24-24h38.576     C342.456,272.752,337.728,280.864,331.832,288z M352,232c0,5.472-0.568,10.8-1.528,16h-27.16L352,219.312V232z M312,236.688     v-27.16c5.2-0.96,10.528-1.528,16-1.528h12.688L312,236.688z" data-original="#000000" class="active-path" data-old_color="#ffffff" fill="#ffffff"/>
			<path d="M256,168c0-13.232-10.768-24-24-24s-24,10.768-24,24s10.768,24,24,24S256,181.232,256,168z M232,176     c-4.416,0-8-3.584-8-8s3.584-8,8-8s8,3.584,8,8S236.416,176,232,176z" data-original="#000000" class="active-path" data-old_color="#ffffff" fill="#ffffff"/>
			<rect x="144" y="432" width="168" height="16" data-original="#000000" class="active-path" data-old_color="#ffffff" fill="#ffffff"/>
			<rect x="328" y="432" width="16" height="16" data-original="#000000" class="active-path" data-old_color="#ffffff" fill="#ffffff"/>
		</g>
	</g>
</g></g> </svg>
