<?xml version="1.0"?>
<svg xmlns="http://www.w3.org/2000/svg" height="512px" viewBox="0 0 480 480" width="512px"><g><path d="m440 0h-400c-22.082031.0273438-39.9726562 17.917969-40 40v400c.0273438 22.082031 17.917969 39.972656 40 40h400c22.082031-.027344 39.972656-17.917969 40-40v-400c-.027344-22.082031-17.917969-39.9726562-40-40zm-208 96v48h-96v-48zm112 0v48h-96v-48zm120 0v48h-104v-48zm0 112h-104v-48h104zm0 64h-104v-48h104zm0 64h-104v-48h104zm-448-48h104v48h-104zm0-64h104v48h-104zm0-64h104v48h-104zm232 64h96v48h-96zm-16 48h-96v-48h96zm16-64v-48h96v48zm-16 0h-96v-48h96zm-96 80h96v48h-96zm112 0h96v48h-96zm-128-144h-104v-48h104zm-104 208h104v48h-104zm120 0h96v48h-96zm96 64v48h-96v-48zm16 0h96v48h-96zm0-16v-48h96v48zm112-48h104v48h-104zm-344-312c0-13.253906 10.746094-24 24-24h400c13.253906 0 24 10.746094 24 24v40h-448zm0 400v-24h104v48h-80c-13.253906 0-24-10.746094-24-24zm448 0c0 13.253906-10.746094 24-24 24h-80v-48h104zm0 0" data-original="#000000" class="active-path" data-old_color="#ffffff" fill="#ffffff"/><path d="m72 40h-32c-4.417969 0-8 3.582031-8 8s3.582031 8 8 8h32c4.417969 0 8-3.582031 8-8s-3.582031-8-8-8zm0 0" data-original="#000000" class="active-path" data-old_color="#ffffff" fill="#ffffff"/><path d="m144 48c0-4.417969-3.582031-8-8-8h-32c-4.417969 0-8 3.582031-8 8s3.582031 8 8 8h32c4.417969 0 8-3.582031 8-8zm0 0" data-original="#000000" class="active-path" data-old_color="#ffffff" fill="#ffffff"/><path d="m168 56h32c4.417969 0 8-3.582031 8-8s-3.582031-8-8-8h-32c-4.417969 0-8 3.582031-8 8s3.582031 8 8 8zm0 0" data-original="#000000" class="active-path" data-old_color="#ffffff" fill="#ffffff"/></g> </svg>
